<?xml version="1.0" standalone="no"?>
<!DOCTYPE svg PUBLIC "-//W3C//DTD SVG 1.1//EN" "http://www.w3.org/Graphics/SVG/1.1/DTD/svg11.dtd" >
<svg xmlns="http://www.w3.org/2000/svg">
<metadata></metadata>
<defs>
<font id="atc_harrisregular" horiz-adv-x="1228" >
<font-face units-per-em="2048" ascent="1638" descent="-410" />
<missing-glyph horiz-adv-x="500" />
<glyph unicode=" " />
<glyph unicode="!" d="M541 1434h149v-625l-28 -352h-95l-26 352v625zM614 -20q-54 0 -89.5 35.5t-35.5 86.5q0 54 35.5 90.5t89.5 36.5q53 0 89 -36.5t36 -90.5q0 -51 -36.5 -86.5t-88.5 -35.5z" />
<glyph unicode="&#x22;" d="M518 1454v-446h-135v446h135zM846 1454v-446h-135v446h135z" />
<glyph unicode="#" d="M850 545h252v-115h-271l-77 -430h-131l75 430h-272l-76 -430h-131l76 430h-168v115h188l64 344h-252v115h272l76 430h131l-76 -430h273l76 430h131l-76 -430h168v-115h-189zM510 889l-64 -344h273l63 344h-272z" />
<glyph unicode="$" d="M637 786q171 -48 222 -69q166 -66 217 -184q26 -60 26 -138q0 -182 -134.5 -298.5t-346.5 -116.5q-33 0 -91 4l-24 -189h-68l27 201q-159 34 -248.5 134.5t-89.5 248.5h135q0 -91 57.5 -159t161.5 -97l74 563q-48 14 -83.5 26t-78 31t-73 39t-61 49t-49.5 62.5 t-30.5 78.5t-11.5 97q0 167 131 276t322 109h36l25 184h68l-27 -192q156 -25 247 -121t91 -246h-135q0 93 -57 158.5t-162 85.5zM311 1069q0 -56 19.5 -99.5t58 -74t80.5 -50t102 -38.5l70 522q-6 2 -20 2q-127 0 -218.5 -71t-91.5 -191zM621 106q154 0 245.5 77.5 t91.5 207.5q0 50 -19.5 90.5t-47 66.5t-77.5 50t-89 37.5t-104 32.5l-74 -557q29 -5 74 -5z" />
<glyph unicode="%" d="M375 903q-120 0 -196.5 80.5t-76.5 192.5q0 117 76.5 197.5t196.5 80.5q116 0 191 -81t75 -197q0 -112 -75 -192.5t-191 -80.5zM375 1012q69 0 113 47t44 117q0 75 -43 122.5t-114 47.5q-75 0 -119.5 -47.5t-44.5 -122.5q0 -71 44.5 -117.5t119.5 -46.5zM1042 1024 l-702 -614h-154l703 614h153zM858 -20q-119 0 -194.5 80.5t-75.5 193.5q0 115 75.5 195.5t194.5 80.5q118 0 193 -80.5t75 -195.5q0 -113 -75.5 -193.5t-192.5 -80.5zM858 88q71 0 115.5 47t44.5 119q0 73 -44 120.5t-116 47.5q-74 0 -118 -47.5t-44 -120.5q0 -72 44 -119 t118 -47z" />
<glyph unicode="&#x26;" d="M967 0l-88 113q-133 -133 -314 -133q-190 0 -316 133t-126 321q0 134 62 241.5t167 176.5q-82 149 -82 272q0 140 98.5 235t247.5 95q85 0 158 -38t117 -102.5t56 -149.5t-25 -179h-129q28 56 29 117.5t-21 111.5t-71 82.5t-114 32.5q-100 0 -155 -64.5t-55 -148.5 q0 -63 19.5 -124.5t76.5 -157.5q10 -16 21.5 -33.5t28 -41.5t30 -43t38 -52.5t41 -55.5t50 -67t53.5 -71t63 -83t68 -90q45 82 45 201h127q0 -170 -98 -303l143 -193zM584 106q141 0 225 101q-188 247 -263.5 350.5t-129.5 187.5q-65 -42 -111.5 -119t-46.5 -177 q0 -146 97 -244.5t229 -98.5z" />
<glyph unicode="'" d="M682 1454v-446h-135v446h135z" />
<glyph unicode="(" d="M858 -225q-249 168 -368 400t-119 542t119 542t368 400v-156q-346 -265 -346 -786q0 -522 346 -787v-155z" />
<glyph unicode=")" d="M371 -70q346 265 346 787q0 521 -346 786v156q249 -168 368 -400t119 -542t-119 -542t-368 -400v155z" />
<glyph unicode="*" d="M532 1112l-245 86l37 100l239 -92l-4 244h109l-4 -244l241 92l35 -100l-246 -86l160 -209l-84 -69l-158 221l-157 -221l-84 69z" />
<glyph unicode="+" d="M676 451v-390h-123v390h-389v122h389v390h123v-390h389v-122h-389z" />
<glyph unicode="," d="M793 266l-236 -446h-123l189 446h170z" />
<glyph unicode="-" d="M901 573v-122h-573v122h573z" />
<glyph unicode="." d="M614 -20q-54 0 -89.5 35.5t-35.5 86.5q0 54 35.5 90.5t89.5 36.5q53 0 89 -36.5t36 -90.5q0 -51 -36.5 -86.5t-88.5 -35.5z" />
<glyph unicode="/" d="M981 1454l-590 -1474h-143l590 1474h143z" />
<glyph unicode="0" d="M614 1454q221 0 349.5 -185t128.5 -552q0 -366 -128.5 -551.5t-349.5 -185.5q-219 0 -348 185.5t-129 551.5t129 551.5t348 185.5zM614 1313q-157 0 -242 -156t-85 -440q0 -254 71 -393l473 880q-81 109 -217 109zM614 121q159 0 243.5 155.5t84.5 440.5q0 252 -72 393 l-475 -879q83 -110 219 -110z" />
<glyph unicode="1" d="M582 123v1118q-42 -48 -124 -85.5t-167 -37.5v123q92 0 191.5 58t129.5 135h119v-1311h371v-123h-893v123h373z" />
<glyph unicode="2" d="M168 125q0 106 29.5 177.5t119.5 156.5l385 379q45 43 71 72.5t51.5 78t25.5 94.5q0 102 -74 171t-184 69q-125 0 -207 -89t-82 -233h-135q0 201 120.5 327t309.5 126q176 0 288.5 -107t112.5 -253q0 -89 -49.5 -174t-144.5 -177l-354 -350q-81 -76 -107.5 -117.5 t-26.5 -91.5v-61h744v-123h-893v125z" />
<glyph unicode="3" d="M614 -20q-112 0 -199.5 35.5t-141.5 97t-81.5 141t-27.5 172.5h135q0 -136 84 -225.5t227 -89.5q125 0 215 80.5t90 209.5q0 92 -54 160t-132 100t-166 33v105q51 1 105.5 22t100.5 57t75.5 92t29.5 120q0 101 -72.5 166t-178.5 65q-127 0 -205 -87t-78 -226h-135 q0 123 48 223t147 161.5t235 61.5q166 0 277.5 -99t111.5 -247q0 -126 -71 -213.5t-179 -140.5q128 -44 209.5 -134t81.5 -223q0 -121 -61 -217t-163.5 -148t-226.5 -52z" />
<glyph unicode="4" d="M147 307v119l631 1008h142v-1004h161v-123h-161v-307h-150v307h-623zM770 1206l-481 -776h481v776z" />
<glyph unicode="5" d="M596 -20q-154 0 -268.5 88.5t-159.5 246.5h135q38 -99 118 -151.5t171 -52.5q143 0 231 99.5t88 254.5q0 154 -82.5 258t-218.5 104q-88 0 -167.5 -56t-120.5 -148h-125l94 811h729v-123h-608l-60 -533q59 79 140 125.5t172 46.5q165 0 281 -136.5t116 -340.5 q0 -214 -130 -353.5t-335 -139.5z" />
<glyph unicode="6" d="M614 -20q-141 0 -244.5 74.5t-154.5 196.5t-51 275q0 202 21.5 358t61.5 263.5t100 176t133 99.5t165 31q143 0 247 -91.5t132 -258.5h-135q-14 76 -54 129t-87.5 75.5t-98.5 22.5q-71 0 -126 -31t-91.5 -84t-62 -131.5t-38 -164t-18.5 -191.5q52 106 144 163.5t188 57.5 q123 0 220 -66.5t148.5 -177t51.5 -241.5q0 -98 -31 -185.5t-87.5 -154.5t-143 -106t-189.5 -39zM614 111q93 0 163.5 52t104 131t33.5 171t-33.5 171t-104 131t-163.5 52q-121 0 -211 -94t-90 -248q0 -62 18 -124.5t53 -117.5t95 -89.5t135 -34.5z" />
<glyph unicode="7" d="M418 0q0 386 114 697.5t367 613.5h-731v123h893v-111q-259 -313 -378.5 -624.5t-119.5 -698.5h-145z" />
<glyph unicode="8" d="M614 -20q-202 0 -336.5 123.5t-134.5 310.5q0 131 76.5 235t196.5 148q-91 39 -151 123t-60 180q0 154 119 254t290 100t290.5 -100t119.5 -254q0 -96 -60 -180t-151 -123q120 -44 196 -148t76 -235q0 -187 -134.5 -310.5t-336.5 -123.5zM614 850q102 0 181 65.5 t79 165.5q0 104 -76 173t-184 69t-184 -69t-76 -173q0 -100 79 -165.5t181 -65.5zM614 113q136 0 229 90.5t93 222.5q0 129 -92 215t-230 86t-229.5 -86t-91.5 -215q0 -132 92.5 -222.5t228.5 -90.5z" />
<glyph unicode="9" d="M584 -20q-143 0 -247 91.5t-132 258.5h135q20 -112 90 -170t150 -58q88 0 151.5 46t100.5 132t56.5 188.5t26.5 236.5q-52 -106 -143.5 -164t-187.5 -58q-123 0 -220 67t-148.5 177.5t-51.5 241.5q0 132 52.5 241t156.5 176.5t241 67.5q141 0 245 -74.5t155 -197 t51 -275.5q0 -251 -32.5 -431.5t-96.5 -288.5t-150.5 -157.5t-201.5 -49.5zM614 614q121 0 211 94t90 248q0 62 -18 124.5t-53 118t-95 90t-135 34.5q-93 0 -163.5 -52t-104 -131t-33.5 -171t33.5 -171t104 -131.5t163.5 -52.5z" />
<glyph unicode=":" d="M614 795q-54 0 -89.5 36t-35.5 89t35.5 88.5t89.5 35.5q53 0 89 -36t36 -88t-36.5 -88.5t-88.5 -36.5zM614 -20q-54 0 -89.5 35.5t-35.5 86.5q0 54 35.5 90.5t89.5 36.5q53 0 89 -36.5t36 -90.5q0 -51 -36.5 -86.5t-88.5 -35.5z" />
<glyph unicode=";" d="M614 795q-54 0 -89.5 36t-35.5 89t35.5 88.5t89.5 35.5q53 0 89 -36t36 -88t-36.5 -88.5t-88.5 -36.5zM698 266l-243 -446h-125l198 446h170z" />
<glyph unicode="&#x3c;" d="M252 537l725 507v-161l-539 -371l539 -371v-161l-725 507v50z" />
<glyph unicode="=" d="M1065 780v-114h-901v114h901zM1065 358v-114h-901v114h901z" />
<glyph unicode="&#x3e;" d="M791 512l-539 371v161l725 -507v-50l-725 -507v161z" />
<glyph unicode="?" d="M995 1116q0 -63 -20.5 -115.5t-53 -90t-71.5 -72.5t-78 -72.5t-71.5 -80t-53 -104t-20.5 -135.5h-135q0 84 19.5 152.5t50.5 114t69 84t76 71t69 65.5t50.5 76t19.5 95q0 93 -67.5 156t-172.5 63q-120 0 -191.5 -92.5t-33.5 -229.5h-135q-24 93 -2.5 175.5t72 144 t129.5 97.5t169 36q168 0 274.5 -98.5t106.5 -239.5zM561 -20q-54 0 -89.5 35.5t-35.5 86.5q0 54 35.5 90.5t89.5 36.5q53 0 89 -36.5t36 -90.5q0 -51 -36.5 -86.5t-88.5 -35.5z" />
<glyph unicode="@" d="M694 -246q-87 0 -166.5 29t-150.5 93.5t-123 158t-82.5 232t-30.5 306.5q0 217 62 388.5t180.5 270.5t273.5 99q100 0 182 -39.5t134 -105t80 -146.5t28 -168v-667h-96l-20 127q-46 -70 -115.5 -109t-153.5 -39q-67 0 -121.5 29.5t-88.5 78.5t-52 108.5t-18 123.5 q0 113 44 197.5t115.5 125t170.5 33t202 -70.5v88q0 58 -19 112.5t-54 99t-91.5 72t-126.5 27.5q-176 0 -284.5 -176.5t-108.5 -458.5q0 -150 26 -271t68 -198.5t99 -130t116 -74.5t121 -22q137 0 260 64v-123q-46 -27 -107.5 -42.5t-95 -18.5t-57.5 -3zM727 301 q91 0 156 56.5t65 144.5v196q-116 75 -205 69t-142.5 -71.5t-53.5 -163.5q0 -99 48.5 -165t131.5 -66z" />
<glyph unicode="A" d="M356 387l-112 -387h-158l432 1434h193l432 -1434h-158l-113 387h-516zM614 1298l-231 -788h463z" />
<glyph unicode="B" d="M610 1434q185 0 307.5 -96.5t122.5 -260.5q0 -134 -69.5 -219.5t-169.5 -114.5q55 -13 103.5 -40t89 -68.5t64 -102t23.5 -133.5q0 -130 -58.5 -222t-154 -134.5t-217.5 -42.5h-504v1434h463zM563 801q328 0 328 254q0 130 -89.5 193t-238.5 63h-266v-510h266zM604 123 q50 0 95 8t88.5 28.5t75 52.5t50.5 84t19 118q0 73 -25.5 125.5t-72 82t-103.5 43t-127 13.5h-307v-555h307z" />
<glyph unicode="C" d="M635 -20q-235 0 -368.5 183t-133.5 554t133.5 554t368.5 183q381 0 461 -453h-150q-58 314 -311 314q-60 0 -111 -18t-96 -61.5t-76.5 -111t-50 -171t-18.5 -236.5t18.5 -236.5t50 -171t76.5 -111t96 -61.5t111 -18q253 0 311 313h150q-41 -231 -156 -341.5t-305 -110.5z " />
<glyph unicode="D" d="M508 1434q114 0 198.5 -18t158 -65.5t119 -127.5t71.5 -206.5t26 -299.5q0 -174 -26 -300.5t-71.5 -206t-119 -127t-158 -65.5t-198.5 -18h-361v1434h361zM500 131q72 0 124 8t104 29.5t87 62.5t63 104.5t41 159t13 222.5q0 109 -10.5 194.5t-29 146.5t-48.5 105 t-63.5 71t-80.5 42.5t-93 21t-107 5.5h-203v-1172h203z" />
<glyph unicode="E" d="M1040 1434v-131h-702v-525h661v-123h-661v-524h702v-131h-852v1434h852z" />
<glyph unicode="F" d="M1040 1434v-131h-702v-521h661v-131h-661v-651h-150v1434h852z" />
<glyph unicode="G" d="M625 -20q-234 0 -363 182t-129 555t129 555t363 182q191 0 305 -109t155 -344h-149q-28 160 -103.5 237t-207.5 77q-80 0 -141 -31t-107 -99t-70 -185.5t-24 -282.5q0 -132 16 -233.5t44.5 -170t71.5 -112.5t94.5 -63t115.5 -19q56 0 101.5 10.5t87.5 37.5t70 70.5 t45 112.5t17 160v98h-293v125h443v-201q0 -153 -35 -262.5t-100 -171.5t-147.5 -90t-188.5 -28z" />
<glyph unicode="H" d="M317 1434v-652h594v652h150v-1434h-150v651h-594v-651h-149v1434h149z" />
<glyph unicode="I" d="M541 131v1172h-394v131h934v-131h-391v-1172h391v-131h-934v131h394z" />
<glyph unicode="J" d="M553 -20q-104 0 -189 36t-139 98t-83 142t-29 170h135q0 -146 86 -235t215 -89q128 0 214.5 89t86.5 235v885h-524v123h667v-1008q0 -84 -29.5 -163t-83 -142.5t-139 -102t-188.5 -38.5z" />
<glyph unicode="K" d="M487 721l-204 -250v-471h-150v1434h150v-742l618 742h174l-495 -603l516 -831h-162z" />
<glyph unicode="L" d="M297 1434v-1303h784v-131h-934v1434h150z" />
<glyph unicode="M" d="M303 1434l311 -820l312 820h155v-1434h-143v1147l-279 -733h-90l-278 733v-1147h-144v1434h156z" />
<glyph unicode="N" d="M287 1434l651 -1168v1168h143v-1434h-139l-651 1167v-1167h-144v1434h140z" />
<glyph unicode="O" d="M614 -20q-252 0 -371.5 177.5t-119.5 559.5t119.5 559.5t371.5 177.5q253 0 372.5 -177t119.5 -560q0 -382 -119.5 -559.5t-372.5 -177.5zM614 119q95 0 162 39.5t106 119t56.5 186.5t17.5 253t-17.5 253t-56.5 186.5t-106 119t-162 39.5q-76 0 -134 -26.5t-97 -75 t-64 -123.5t-36 -166t-11 -207t11 -207t36 -166t64 -123.5t97 -75t134 -26.5z" />
<glyph unicode="P" d="M694 1434q194 0 316.5 -104.5t122.5 -301.5q0 -131 -60 -224t-157.5 -136t-221.5 -43h-346v-625h-149v1434h495zM678 756q61 0 113.5 14.5t96.5 45.5t69.5 85.5t25.5 126.5q0 73 -25.5 127.5t-69.5 86t-97 46.5t-113 15h-330v-547h330z" />
<glyph unicode="Q" d="M936 -262q-45 0 -88.5 20t-77.5 49t-66.5 58t-69.5 49t-73 20q-95 0 -133 -94h-102q28 113 110 166q-160 56 -236.5 229t-76.5 482q0 382 119.5 559.5t371.5 177.5q253 0 372.5 -177t119.5 -560q0 -349 -99 -526t-307 -205q22 -15 67 -54t81 -59t76 -20q49 0 76.5 27 t43.5 81h103q-23 -102 -76.5 -162.5t-134.5 -60.5zM614 119q95 0 162 39.5t106 119t56.5 186.5t17.5 253t-17.5 253t-56.5 186.5t-106 119t-162 39.5q-76 0 -134 -26.5t-97 -75t-64 -123.5t-36 -166t-11 -207t11 -207t36 -166t64 -123.5t97 -75t134 -26.5z" />
<glyph unicode="R" d="M635 625h-338v-625h-150v1434h496q126 0 223 -43.5t156 -136.5t59 -226q0 -160 -84 -259.5t-225 -131.5l330 -637h-160zM627 756q137 0 221 66t84 206t-84 207.5t-221 67.5h-330v-547h330z" />
<glyph unicode="S" d="M621 -20q-227 0 -360.5 108t-133.5 291h143q0 -113 95 -189.5t256 -76.5q148 0 239.5 77t91.5 201q0 61 -27 107t-72 75t-104 51t-124 40.5t-130 38.5t-124 50t-104 69.5t-72 102.5t-27 144q0 167 131 276t322 109q199 0 319.5 -101t120.5 -274h-143q0 106 -79.5 175 t-217.5 69q-78 0 -146.5 -29.5t-113 -88.5t-44.5 -136q0 -81 43.5 -136.5t112.5 -85.5t152.5 -52.5t167.5 -49.5t153 -65t112.5 -110t43.5 -175q0 -182 -134.5 -298.5t-346.5 -116.5z" />
<glyph unicode="T" d="M147 1311v123h934v-123h-391v-1311h-149v1311h-394z" />
<glyph unicode="U" d="M614 -20q-134 0 -226.5 38t-144.5 114.5t-74 178t-22 242.5v881h150v-881q0 -223 70.5 -327.5t246.5 -104.5q177 0 247.5 104.5t70.5 327.5v881h149v-881q0 -141 -22 -242.5t-74 -178t-144.5 -114.5t-226.5 -38z" />
<glyph unicode="V" d="M244 1434l370 -1282l371 1282h158l-432 -1434h-193l-432 1434h158z" />
<glyph unicode="W" d="M238 1434l135 -1155l194 725h95l194 -725l135 1155h152l-178 -1434h-144l-207 758l-206 -758h-144l-178 1434h152z" />
<glyph unicode="X" d="M127 1434h160l327 -588l328 588h160l-404 -701l424 -733h-159l-349 616l-348 -616h-160l424 733z" />
<glyph unicode="Y" d="M86 1434h156l372 -660l373 660h156l-453 -791v-643h-149v643z" />
<glyph unicode="Z" d="M893 1311h-725v123h893v-109l-746 -1202h766v-123h-934v109z" />
<glyph unicode="[" d="M877 1659v-131h-381v-1622h381v-131h-525v1884h525z" />
<glyph unicode="\" d="M391 1454l590 -1474h-143l-590 1474h143z" />
<glyph unicode="]" d="M733 -102v1638h-381v123h525v-1884h-525v123h381z" />
<glyph unicode="^" d="M1075 709h-162l-299 538l-299 -538h-161l436 725h49z" />
<glyph unicode="_" d="M1065 -121v-123h-901v123h901z" />
<glyph unicode="a" d="M530 -20q-153 0 -244 85t-91 214q0 102 55.5 178.5t148 113t223 23t269.5 -83.5v164q0 120 -74.5 184t-183.5 64q-118 0 -190 -68.5t-72 -151.5h-135q0 97 58 176.5t149.5 122.5t193.5 43q180 0 288.5 -101t108.5 -277v-666h-112l-23 141q-142 -161 -369 -161zM551 100 q85 0 163.5 27.5t127.5 75.5t49 104v92q-105 53 -197.5 73t-156 10.5t-110 -38.5t-68 -70t-21.5 -87q0 -89 62.5 -138t150.5 -49z" />
<glyph unicode="b" d="M631 -20q-188 0 -330 161l-22 -141h-113v1434h149v-551q61 76 146.5 118.5t177.5 42.5q184 0 304 -150.5t120 -381.5t-121 -381.5t-311 -150.5zM600 125q63 0 115.5 23.5t88.5 62.5t61 89.5t36.5 104t11.5 107.5t-11.5 107.5t-36.5 104t-61 89.5t-88.5 62.5t-115.5 23.5 q-45 0 -92.5 -15.5t-92 -46t-72.5 -83.5t-28 -119v-246q0 -66 28 -119t72.5 -83.5t92 -46t92.5 -15.5z" />
<glyph unicode="c" d="M633 -20q-209 0 -340 150t-131 382t131 382t340 150q155 0 274.5 -93.5t159.5 -262.5h-149q-36 110 -112 163.5t-173 53.5q-141 0 -231.5 -109t-90.5 -284t90.5 -284t231.5 -109q97 0 173 53.5t112 163.5h149q-40 -168 -160 -262t-274 -94z" />
<glyph unicode="d" d="M598 -20q-190 0 -311 150.5t-121 381.5t120 381.5t304 150.5q92 0 176.5 -42t146.5 -119v551h150v-1434h-113l-22 141q-142 -161 -330 -161zM629 125q45 0 92.5 15.5t91.5 46t72 83.5t28 119v246q0 66 -28 119t-72 83.5t-91.5 46t-92.5 15.5q-78 0 -140 -35.5t-99 -93 t-56 -124t-19 -134.5t19 -134.5t56 -124t99 -93t140 -35.5z" />
<glyph unicode="e" d="M629 -20q-206 0 -336.5 150.5t-130.5 375.5q0 149 56 270.5t163.5 194.5t247.5 73q85 0 158.5 -27t123.5 -70t86.5 -96t53 -105t16.5 -97q0 -192 -254 -192h-504q0 -139 89.5 -238.5t228.5 -99.5q114 0 184.5 49t93.5 119h144q-25 -105 -92 -176t-149.5 -101t-178.5 -30z M758 575q82 0 123 20t41 77q0 82 -83.5 157.5t-209.5 75.5q-76 0 -138.5 -31t-101 -80t-59.5 -106t-21 -113h449z" />
<glyph unicode="f" d="M481 127v610h-272v123h272v250q0 149 87.5 246.5t234.5 97.5q148 0 233.5 -97t85.5 -247h-135q0 106 -50 163.5t-130 57.5t-131 -57.5t-51 -163.5v-250h272v-123h-272v-610h374v-127h-893v127h375z" />
<glyph unicode="g" d="M657 168q201 38 331 -40.5t130 -227.5q0 -102 -62.5 -177.5t-167.5 -114t-237 -38.5q-144 0 -270 38t-209 99v143q204 -147 471 -147q91 0 164.5 20.5t120.5 67t47 113.5q0 91 -83.5 130t-215.5 11q-236 -50 -370 0t-134 182q0 124 154 201q-123 101 -123 260 q0 153 116.5 254.5t301.5 101.5q193 0 311 -108q94 14 192 108l35 -86q-80 -77 -176 -88q57 -79 57 -182q0 -153 -116.5 -255.5t-302.5 -102.5q-107 0 -195 43q-61 -25 -97 -55t-36 -76q0 -52 39 -76.5t118.5 -24t206.5 26.5zM621 918q-122 0 -196.5 -64.5t-74.5 -165.5 t74.5 -166t196.5 -65q121 0 195.5 65t74.5 166q0 107 -77.5 168.5t-192.5 61.5z" />
<glyph unicode="h" d="M344 1434v-551q61 76 147.5 118.5t176.5 42.5q95 0 167.5 -33.5t114.5 -91t63 -128.5t21 -152v-639h-149v616q0 61 -13.5 110t-43 89t-82 62t-125.5 22q-47 0 -94.5 -16t-89 -45.5t-67.5 -80.5t-26 -114v-643h-149v1434h149z" />
<glyph unicode="i" d="M676 1217q-54 0 -89.5 34.5t-35.5 87.5t35.5 89t89.5 36q52 0 88.5 -36t36.5 -89q0 -52 -36 -87t-89 -35zM625 127v770h-314v127h457v-897h313v-127h-893v127h437z" />
<glyph unicode="j" d="M852 1214q-54 0 -89.5 36t-35.5 89t35.5 89t89.5 36q52 0 87.5 -36t35.5 -89t-35.5 -89t-87.5 -36zM625 -430q-150 0 -236 97t-86 247h133q0 -106 53 -163.5t132 -57.5t129.5 57.5t50.5 163.5v979h-557v131h702v-1110q0 -149 -87 -246.5t-234 -97.5z" />
<glyph unicode="k" d="M565 537l-178 -162v-375h-149v1434h149v-867l490 457h182l-395 -381l409 -643h-168z" />
<glyph unicode="l" d="M541 131v1172h-312v131h457v-1299h375v-135h-893v131h373z" />
<glyph unicode="m" d="M223 1024l23 -141q36 66 100 113.5t131 47.5q141 0 187 -176q42 84 108 130t129 46q104 0 156.5 -91t52.5 -255v-698h-143v659q0 54 -4.5 92t-17 74.5t-38.5 55t-65 18.5q-63 0 -111.5 -69t-48.5 -175v-655h-135v659q0 43 -2 74t-9.5 64.5t-20.5 54t-36 34t-55 13.5 q-62 0 -112 -69.5t-50 -174.5v-655h-143v1024h104z" />
<glyph unicode="n" d="M307 1024l23 -141q142 161 329 161q102 0 177 -33t117 -91.5t61.5 -128t19.5 -152.5v-639h-149v616q0 61 -13.5 110t-43 89t-82 62t-125.5 22q-47 0 -94.5 -16t-89 -45.5t-67.5 -80.5t-26 -114v-643h-149v1024h112z" />
<glyph unicode="o" d="M614 -20q-209 0 -340 150t-131 382t131 382t340 150q211 0 341 -149t130 -383q0 -233 -130.5 -382.5t-340.5 -149.5zM614 119q142 0 232 105.5t90 287.5t-90 287.5t-232 105.5q-140 0 -230.5 -105.5t-90.5 -287.5t90.5 -287.5t230.5 -105.5z" />
<glyph unicode="p" d="M279 1024l22 -141q142 161 330 161q190 0 311 -150.5t121 -381.5t-120 -381.5t-304 -150.5q-92 0 -177.5 42.5t-146.5 118.5v-551h-149v1434h113zM600 125q63 0 115.5 23.5t88.5 62.5t61 89.5t36.5 104t11.5 107.5t-11.5 107.5t-36.5 104t-61 89.5t-88.5 62.5 t-115.5 23.5q-45 0 -92.5 -15.5t-92 -46t-72.5 -83.5t-28 -119v-246q0 -66 28 -119t72.5 -83.5t92 -46t92.5 -15.5z" />
<glyph unicode="q" d="M913 141q-62 -77 -146.5 -119t-176.5 -42q-184 0 -304 150.5t-120 381.5t121 381.5t311 150.5q188 0 330 -161l22 141h113v-1434h-150v551zM629 125q45 0 92.5 15.5t91.5 46t72 83.5t28 119v246q0 66 -28 119t-72 83.5t-91.5 46t-92.5 15.5q-78 0 -140 -35.5t-99 -93 t-56 -124t-19 -134.5t19 -134.5t56 -124t99 -93t140 -35.5z" />
<glyph unicode="r" d="M285 127v897h116l23 -141q122 161 293 161q106 0 184 -58.5t116 -152t38 -208.5h-144q0 74 -23 134t-77.5 100t-132.5 40q-44 0 -86 -16.5t-78 -48.5t-58 -86.5t-22 -122.5v-498h387v-127h-688v127h152z" />
<glyph unicode="s" d="M610 -20q-196 0 -314 101.5t-118 266.5h135q0 -111 81 -178.5t216 -67.5q134 0 215.5 52t81.5 145q0 66 -45.5 99.5t-159.5 52.5l-219 36q-135 21 -210.5 79.5t-75.5 174.5q0 94 58.5 164.5t149.5 104.5t199 34q184 0 295 -93.5t111 -250.5h-136q0 95 -71 158.5 t-199 63.5q-105 0 -184.5 -51t-79.5 -136q0 -32 12 -55.5t29 -38t48 -25.5t57 -16.5t69 -11.5l197 -33q73 -12 124.5 -29.5t92.5 -46.5t61.5 -74t20.5 -106q0 -152 -123 -235.5t-318 -83.5z" />
<glyph unicode="t" d="M721 -20q-147 0 -234.5 97.5t-87.5 246.5v577h-231v123h231v410h144v-410h497v-123h-497v-577q0 -105 51 -163.5t131 -58.5q79 0 129.5 58.5t50.5 163.5h135q0 -150 -85.5 -247t-233.5 -97z" />
<glyph unicode="u" d="M569 -20q-82 0 -147 22.5t-107 60t-69.5 90t-39 110t-11.5 122.5v639h149v-616q0 -61 13.5 -110t43 -89t82 -62t125.5 -22q47 0 94.5 16t89 45.5t67.5 80.5t26 114v643h149v-1024h-112l-23 141q-142 -161 -330 -161z" />
<glyph unicode="v" d="M303 1024l311 -887l312 887h155l-370 -1024h-193l-371 1024h156z" />
<glyph unicode="w" d="M279 1024l135 -821l155 530h90l156 -530l135 821h152l-182 -1024h-156l-150 524l-149 -524h-156l-182 1024h152z" />
<glyph unicode="x" d="M188 1024h166l260 -395l260 395h166l-335 -498l356 -526h-166l-281 424l-280 -424h-166l356 526z" />
<glyph unicode="y" d="M354 -430q-130 0 -221 82v139q104 -94 197 -94q33 0 56 5.5t49 23.5t49.5 55t47.5 96l48 123l-396 1024h158l301 -827l291 827h158l-422 -1153q-17 -45 -31 -77.5t-42 -78t-59 -74.5t-79.5 -50t-104.5 -21z" />
<glyph unicode="z" d="M819 893h-604v131h799v-90l-625 -803h645v-131h-839v92z" />
<glyph unicode="{" d="M883 -225q-180 0 -267.5 89t-87.5 277v287q0 55 -28.5 100.5t-71 72.5t-87 41.5t-81.5 14.5v119q37 0 81.5 15t87 42t71 72.5t28.5 100.5v286q0 188 87.5 277.5t267.5 89.5h86v-131h-68q-120 0 -175.5 -62t-55.5 -190v-275q0 -101 -66 -174t-166 -110q100 -37 166 -110.5 t66 -174.5v-274q0 -128 55.5 -190t175.5 -62h68v-131h-86z" />
<glyph unicode="|" d="M686 1659l2 -1884h-143l-2 1884h143z" />
<glyph unicode="}" d="M260 -94h68q120 0 175.5 62t55.5 190v274q0 101 66 174.5t166 110.5q-100 37 -166 110t-66 174v275q0 128 -55.5 190t-175.5 62h-68v131h86q179 0 266.5 -89.5t87.5 -277.5v-286q0 -55 28.5 -100.5t71 -72.5t87.5 -42t82 -15v-119q-37 0 -82 -14.5t-87.5 -41.5t-71 -72.5 t-28.5 -100.5v-287q0 -188 -87 -277t-267 -89h-86v131z" />
<glyph unicode="~" d="M131 1233q47 117 125 180.5t170 63.5q47 0 102 -23.5t96.5 -51.5t89 -51.5t81.5 -23.5q122 0 190 150h113q-47 -117 -124 -180.5t-169 -63.5q-47 0 -102 23.5t-96.5 51t-89 51t-81.5 23.5q-125 0 -192 -149h-113z" />
<glyph unicode="&#xa0;" />
<glyph unicode="&#xa1;" d="M614 795q-54 0 -89.5 36.5t-35.5 90.5q0 51 35.5 86.5t89.5 35.5q52 0 88.5 -35.5t36.5 -86.5q0 -54 -36 -90.5t-89 -36.5zM567 567h95l28 -352v-625h-149v625z" />
<glyph unicode="&#xa2;" d="M637 111q90 0 172 54.5t119 162.5h139q-40 -163 -160 -255.5t-274 -92.5q-33 0 -49 2l-25 -189h-65l24 201q-163 40 -259.5 180.5t-96.5 337.5q0 232 131 382t340 150h14l23 187h65l-22 -193q128 -22 224 -111.5t130 -230.5h-139q-31 90 -93.5 143t-138.5 68l-98 -794 q6 0 19.5 -1t19.5 -1zM305 512q0 -145 62.5 -247t167.5 -138l96 786q-143 -3 -234.5 -113t-91.5 -288z" />
<glyph unicode="&#xa3;" d="M147 121q80 0 119 50t39 155v348h-158v86h158v350q0 149 86.5 246.5t233.5 97.5q148 0 233.5 -97t85.5 -247h-135q0 107 -49.5 164t-130.5 57q-80 0 -131.5 -57.5t-51.5 -163.5v-350h314v-86h-314v-342q0 -158 -73 -205h391q182 0 182 197h135q0 -169 -85 -246.5 t-232 -77.5h-617v121z" />
<glyph unicode="&#xa4;" d="M1090 512q0 -186 -117 -322l151 -141l-71 -72l-142 154q-130 -102 -297 -102t-297 102l-141 -154l-72 72l152 141q-117 136 -117 322t117 322l-152 141l72 72l141 -154q130 102 297 102t297 -102l142 154l71 -72l-151 -141q117 -136 117 -322zM614 160q145 0 239.5 98.5 t94.5 253.5t-94.5 253.5t-239.5 98.5t-239 -98.5t-94 -253.5t94 -253.5t239 -98.5z" />
<glyph unicode="&#xa5;" d="M918 717v-84h-228v-146h228v-86h-228v-401h-149v401h-230v86h230v146h-230v84h215l-440 717h158l370 -609l371 609h158l-441 -717h216z" />
<glyph unicode="&#xa9;" d="M614 102q-112 0 -210.5 42t-173 119t-117.5 194.5t-43 259.5t43 259.5t117.5 194t173 118.5t210.5 42q113 0 211.5 -41.5t173 -118t117.5 -194t43 -260.5q0 -142 -43 -259.5t-117.5 -194.5t-173.5 -119t-211 -42zM614 170q99 0 185.5 36t152 103.5t103 172.5t37.5 235 t-37.5 235t-103 172.5t-152 103.5t-185.5 36q-98 0 -184 -36t-151.5 -103.5t-103.5 -172.5t-38 -235t38 -235t103.5 -172.5t151.5 -103.5t184 -36zM618 319q-107 0 -183.5 57.5t-111 145.5t-34.5 195q0 79 20.5 149.5t60 126.5t103.5 88.5t145 32.5q28 0 58.5 -5.5t69 -23 t71 -44.5t61.5 -75t44 -110h-76q-32 93 -93.5 137.5t-138.5 44.5q-118 0 -183.5 -91t-65.5 -230t65.5 -230.5t183.5 -91.5q77 0 138.5 44.5t93.5 138.5h76q-15 -62 -44 -110t-62 -75.5t-71.5 -44.5t-69 -23t-57.5 -6z" />
<glyph unicode="&#xab;" d="M156 537l454 409v-155l-315 -279l315 -279v-155l-454 409v50zM618 537l455 409v-155l-315 -279l315 -279v-155l-455 409v50z" />
<glyph unicode="&#xad;" d="M901 573v-122h-573v122h573z" />
<glyph unicode="&#xae;" d="M614 102q-112 0 -210.5 42t-173 119t-117.5 194.5t-43 259.5t43 259.5t117.5 194t173 118.5t210.5 42q113 0 211.5 -41.5t173 -118t117.5 -194t43 -260.5q0 -142 -43 -259.5t-117.5 -194.5t-173.5 -119t-211 -42zM614 170q99 0 185.5 36t152 103.5t103 172.5t37.5 235 t-37.5 235t-103 172.5t-152 103.5t-185.5 36q-98 0 -184 -36t-151.5 -103.5t-103.5 -172.5t-38 -235t38 -235t103.5 -172.5t151.5 -103.5t184 -36zM885 877q0 -22 -4.5 -43.5t-18 -46.5t-34 -45t-56 -36.5t-80.5 -23.5l176 -328h-80l-170 318h-143v-318h-78v727h221 q78 0 133.5 -19.5t83 -52.5t39 -65t11.5 -67zM618 741q102 0 145.5 38.5t43.5 97.5q0 56 -44 94.5t-145 38.5h-143v-269h143z" />
<glyph unicode="&#xb0;" d="M473 918q-120 0 -196 80t-76 194q0 117 76 197.5t196 80.5q118 0 193 -81t75 -197q0 -113 -75.5 -193.5t-192.5 -80.5zM473 1026q71 0 115.5 48t44.5 118q0 73 -44 121.5t-116 48.5q-75 0 -119.5 -48t-44.5 -122q0 -71 44.5 -118.5t119.5 -47.5z" />
<glyph unicode="&#xb1;" d="M676 582v-299h-123v299h-389v123h389v299h123v-299h389v-123h-389zM1065 143v-123h-901v123h901z" />
<glyph unicode="&#xb7;" d="M614 592q-54 0 -89.5 36t-35.5 89t35.5 89t89.5 36q52 0 88.5 -36t36.5 -89t-36.5 -89t-88.5 -36z" />
<glyph unicode="&#xbb;" d="M471 512l-315 274v160l454 -409v-50l-454 -409v160zM934 512l-316 274v160l455 -409v-50l-455 -409v160z" />
<glyph unicode="&#xbf;" d="M668 1044q54 0 89.5 -35.5t35.5 -86.5q0 -54 -35.5 -90.5t-89.5 -36.5q-53 0 -89 36.5t-36 90.5q0 51 36.5 86.5t88.5 35.5zM233 -92q0 63 20.5 115.5t53 90t71.5 72.5t78.5 72.5t72 80t53 104t20.5 135.5h135q0 -84 -19.5 -152.5t-50.5 -114t-69 -84t-76 -71t-69 -65.5 t-50.5 -76t-19.5 -95q0 -93 67.5 -156t172.5 -63q121 0 192 92.5t33 229.5h135q24 -93 2.5 -175.5t-72.5 -144t-130 -97.5t-169 -36q-168 0 -274.5 98.5t-106.5 239.5z" />
<glyph unicode="&#xc0;" d="M514 1798l154 -221h-107l-199 221h152zM356 387l-112 -387h-158l432 1434h193l432 -1434h-158l-113 387h-516zM614 1298l-231 -788h463z" />
<glyph unicode="&#xc1;" d="M866 1798l-198 -221h-107l154 221h151zM356 387l-112 -387h-158l432 1434h193l432 -1434h-158l-113 387h-516zM614 1298l-231 -788h463z" />
<glyph unicode="&#xc2;" d="M676 1823l256 -246h-144l-174 192l-174 -192h-143l256 246h123zM356 387l-112 -387h-158l432 1434h193l432 -1434h-158l-113 387h-516zM614 1298l-231 -788h463z" />
<glyph unicode="&#xc3;" d="M266 1561q7 107 63.5 169t145.5 62q35 0 67 -15t57.5 -36t49 -42.5t50.5 -36.5t53 -15q48 0 81.5 36.5t34.5 108.5h95q-8 -107 -63 -169t-144 -62q-35 0 -67 15t-57.5 36.5t-49 42.5t-50.5 36t-53 15q-49 0 -83.5 -36.5t-35.5 -108.5h-94zM356 387l-112 -387h-158 l432 1434h193l432 -1434h-158l-113 387h-516zM614 1298l-231 -788h463z" />
<glyph unicode="&#xc4;" d="M375 1565q-44 0 -75.5 31t-31.5 75t31.5 75.5t75.5 31.5q45 0 75.5 -31t30.5 -76t-30.5 -75.5t-75.5 -30.5zM854 1565q-45 0 -75.5 30.5t-30.5 75.5t30.5 76t75.5 31q44 0 75.5 -31.5t31.5 -75.5t-31.5 -75t-75.5 -31zM356 387l-112 -387h-158l432 1434h193l432 -1434 h-158l-113 387h-516zM614 1298l-231 -788h463z" />
<glyph unicode="&#xc5;" d="M985 0l-113 387h-516l-112 -387h-158l430 1425q-52 27 -82.5 77t-30.5 112q0 89 60 149t151 60t151 -60t60 -149q0 -62 -30 -112t-82 -77l430 -1425h-158zM614 1745q-57 0 -95 -37t-38 -94q0 -58 38 -95.5t95 -37.5t95.5 37.5t38.5 95.5q0 57 -38.5 94t-95.5 37z M614 1298l-231 -788h463z" />
<glyph unicode="&#xc6;" d="M1151 1434v-123h-367v-506h326v-123h-326v-559h367v-123h-508v387h-295l-112 -387h-158l432 1434h641zM643 1311h-35l-233 -801h268v801z" />
<glyph unicode="&#xc7;" d="M635 119q253 0 311 313h150q-69 -399 -373 -446q98 -74 98 -181q0 -95 -76.5 -143.5t-178.5 -36.5t-175 76v109q67 -59 147.5 -80.5t136.5 5t56 95.5q0 79 -96 150q-235 0 -368.5 183t-133.5 554t133.5 554t368.5 183q381 0 461 -453h-150q-58 314 -311 314 q-60 0 -111 -18t-96 -61.5t-76.5 -111t-50 -171t-18.5 -236.5t18.5 -236.5t50 -171t76.5 -111t96 -61.5t111 -18z" />
<glyph unicode="&#xc8;" d="M514 1798l154 -221h-107l-199 221h152zM1040 1434v-131h-702v-525h661v-123h-661v-524h702v-131h-852v1434h852z" />
<glyph unicode="&#xc9;" d="M866 1798l-198 -221h-107l154 221h151zM1040 1434v-131h-702v-525h661v-123h-661v-524h702v-131h-852v1434h852z" />
<glyph unicode="&#xca;" d="M676 1823l256 -246h-144l-174 192l-174 -192h-143l256 246h123zM1040 1434v-131h-702v-525h661v-123h-661v-524h702v-131h-852v1434h852z" />
<glyph unicode="&#xcb;" d="M375 1565q-44 0 -75.5 31t-31.5 75t31.5 75.5t75.5 31.5q45 0 75.5 -31t30.5 -76t-30.5 -75.5t-75.5 -30.5zM854 1565q-45 0 -75.5 30.5t-30.5 75.5t30.5 76t75.5 31q44 0 75.5 -31.5t31.5 -75.5t-31.5 -75t-75.5 -31zM1040 1434v-131h-702v-525h661v-123h-661v-524h702 v-131h-852v1434h852z" />
<glyph unicode="&#xcc;" d="M514 1798l154 -221h-107l-199 221h152zM541 131v1172h-394v131h934v-131h-391v-1172h391v-131h-934v131h394z" />
<glyph unicode="&#xcd;" d="M866 1798l-198 -221h-107l154 221h151zM541 131v1172h-394v131h934v-131h-391v-1172h391v-131h-934v131h394z" />
<glyph unicode="&#xce;" d="M676 1823l256 -246h-144l-174 192l-174 -192h-143l256 246h123zM541 131v1172h-394v131h934v-131h-391v-1172h391v-131h-934v131h394z" />
<glyph unicode="&#xcf;" d="M375 1565q-44 0 -75.5 31t-31.5 75t31.5 75.5t75.5 31.5q45 0 75.5 -31t30.5 -76t-30.5 -75.5t-75.5 -30.5zM854 1565q-45 0 -75.5 30.5t-30.5 75.5t30.5 76t75.5 31q44 0 75.5 -31.5t31.5 -75.5t-31.5 -75t-75.5 -31zM541 131v1172h-394v131h934v-131h-391v-1172h391 v-131h-934v131h394z" />
<glyph unicode="&#xd0;" d="M508 1434q114 0 198.5 -18t158 -65.5t119 -127.5t71.5 -206.5t26 -299.5q0 -174 -26 -300.5t-71.5 -206t-119 -127t-158 -65.5t-198.5 -18h-361v674h-147v86h147v674h361zM500 131q72 0 124 8t104 29.5t87 62.5t63 104.5t41 159t13 222.5q0 109 -10.5 194.5t-29 146.5 t-48.5 105t-63.5 71t-80.5 42.5t-93 21t-107 5.5h-203v-543h283v-86h-283v-543h203z" />
<glyph unicode="&#xd1;" d="M266 1561q7 107 63.5 169t145.5 62q35 0 67 -15t57.5 -36t49 -42.5t50.5 -36.5t53 -15q48 0 81.5 36.5t34.5 108.5h95q-8 -107 -63 -169t-144 -62q-35 0 -67 15t-57.5 36.5t-49 42.5t-50.5 36t-53 15q-49 0 -83.5 -36.5t-35.5 -108.5h-94zM287 1434l651 -1168v1168h143 v-1434h-139l-651 1167v-1167h-144v1434h140z" />
<glyph unicode="&#xd2;" d="M514 1798l154 -221h-107l-199 221h152zM614 -20q-252 0 -371.5 177.5t-119.5 559.5t119.5 559.5t371.5 177.5q253 0 372.5 -177t119.5 -560q0 -382 -119.5 -559.5t-372.5 -177.5zM614 119q95 0 162 39.5t106 119t56.5 186.5t17.5 253t-17.5 253t-56.5 186.5t-106 119 t-162 39.5q-76 0 -134 -26.5t-97 -75t-64 -123.5t-36 -166t-11 -207t11 -207t36 -166t64 -123.5t97 -75t134 -26.5z" />
<glyph unicode="&#xd3;" d="M866 1798l-198 -221h-107l154 221h151zM614 -20q-252 0 -371.5 177.5t-119.5 559.5t119.5 559.5t371.5 177.5q253 0 372.5 -177t119.5 -560q0 -382 -119.5 -559.5t-372.5 -177.5zM614 119q95 0 162 39.5t106 119t56.5 186.5t17.5 253t-17.5 253t-56.5 186.5t-106 119 t-162 39.5q-76 0 -134 -26.5t-97 -75t-64 -123.5t-36 -166t-11 -207t11 -207t36 -166t64 -123.5t97 -75t134 -26.5z" />
<glyph unicode="&#xd4;" d="M676 1823l256 -246h-144l-174 192l-174 -192h-143l256 246h123zM614 -20q-252 0 -371.5 177.5t-119.5 559.5t119.5 559.5t371.5 177.5q253 0 372.5 -177t119.5 -560q0 -382 -119.5 -559.5t-372.5 -177.5zM614 119q95 0 162 39.5t106 119t56.5 186.5t17.5 253t-17.5 253 t-56.5 186.5t-106 119t-162 39.5q-76 0 -134 -26.5t-97 -75t-64 -123.5t-36 -166t-11 -207t11 -207t36 -166t64 -123.5t97 -75t134 -26.5z" />
<glyph unicode="&#xd5;" d="M266 1561q7 107 63.5 169t145.5 62q35 0 67 -15t57.5 -36t49 -42.5t50.5 -36.5t53 -15q48 0 81.5 36.5t34.5 108.5h95q-8 -107 -63 -169t-144 -62q-35 0 -67 15t-57.5 36.5t-49 42.5t-50.5 36t-53 15q-49 0 -83.5 -36.5t-35.5 -108.5h-94zM614 -20q-252 0 -371.5 177.5 t-119.5 559.5t119.5 559.5t371.5 177.5q253 0 372.5 -177t119.5 -560q0 -382 -119.5 -559.5t-372.5 -177.5zM614 119q95 0 162 39.5t106 119t56.5 186.5t17.5 253t-17.5 253t-56.5 186.5t-106 119t-162 39.5q-76 0 -134 -26.5t-97 -75t-64 -123.5t-36 -166t-11 -207t11 -207 t36 -166t64 -123.5t97 -75t134 -26.5z" />
<glyph unicode="&#xd6;" d="M375 1565q-44 0 -75.5 31t-31.5 75t31.5 75.5t75.5 31.5q45 0 75.5 -31t30.5 -76t-30.5 -75.5t-75.5 -30.5zM854 1565q-45 0 -75.5 30.5t-30.5 75.5t30.5 76t75.5 31q44 0 75.5 -31.5t31.5 -75.5t-31.5 -75t-75.5 -31zM614 -20q-252 0 -371.5 177.5t-119.5 559.5 t119.5 559.5t371.5 177.5q253 0 372.5 -177t119.5 -560q0 -382 -119.5 -559.5t-372.5 -177.5zM614 119q95 0 162 39.5t106 119t56.5 186.5t17.5 253t-17.5 253t-56.5 186.5t-106 119t-162 39.5q-76 0 -134 -26.5t-97 -75t-64 -123.5t-36 -166t-11 -207t11 -207t36 -166 t64 -123.5t97 -75t134 -26.5z" />
<glyph unicode="&#xd7;" d="M614 424l-274 -274l-88 88l274 274l-274 272l90 88l272 -272l275 272l86 -88l-273 -272l275 -274l-88 -88z" />
<glyph unicode="&#xd8;" d="M983 1282q123 -182 123 -565q0 -382 -119.5 -559.5t-372.5 -177.5q-202 0 -317 112l-135 -235h-86l170 297q-123 178 -123 563q0 382 119.5 559.5t371.5 177.5q204 0 318 -111l135 234h86zM272 717q0 -268 62 -412l518 899q-82 111 -238 111q-76 0 -134 -26.5t-97 -75 t-64 -123.5t-36 -166t-11 -207zM956 717q0 269 -61 411l-518 -899q81 -110 237 -110q95 0 162 39.5t106 119t56.5 186.5t17.5 253z" />
<glyph unicode="&#xd9;" d="M514 1798l154 -221h-107l-199 221h152zM614 -20q-134 0 -226.5 38t-144.5 114.5t-74 178t-22 242.5v881h150v-881q0 -223 70.5 -327.5t246.5 -104.5q177 0 247.5 104.5t70.5 327.5v881h149v-881q0 -141 -22 -242.5t-74 -178t-144.5 -114.5t-226.5 -38z" />
<glyph unicode="&#xda;" d="M866 1798l-198 -221h-107l154 221h151zM614 -20q-134 0 -226.5 38t-144.5 114.5t-74 178t-22 242.5v881h150v-881q0 -223 70.5 -327.5t246.5 -104.5q177 0 247.5 104.5t70.5 327.5v881h149v-881q0 -141 -22 -242.5t-74 -178t-144.5 -114.5t-226.5 -38z" />
<glyph unicode="&#xdb;" d="M676 1823l256 -246h-144l-174 192l-174 -192h-143l256 246h123zM614 -20q-134 0 -226.5 38t-144.5 114.5t-74 178t-22 242.5v881h150v-881q0 -223 70.5 -327.5t246.5 -104.5q177 0 247.5 104.5t70.5 327.5v881h149v-881q0 -141 -22 -242.5t-74 -178t-144.5 -114.5 t-226.5 -38z" />
<glyph unicode="&#xdc;" d="M375 1565q-44 0 -75.5 31t-31.5 75t31.5 75.5t75.5 31.5q45 0 75.5 -31t30.5 -76t-30.5 -75.5t-75.5 -30.5zM854 1565q-45 0 -75.5 30.5t-30.5 75.5t30.5 76t75.5 31q44 0 75.5 -31.5t31.5 -75.5t-31.5 -75t-75.5 -31zM614 -20q-134 0 -226.5 38t-144.5 114.5t-74 178 t-22 242.5v881h150v-881q0 -223 70.5 -327.5t246.5 -104.5q177 0 247.5 104.5t70.5 327.5v881h149v-881q0 -141 -22 -242.5t-74 -178t-144.5 -114.5t-226.5 -38z" />
<glyph unicode="&#xdd;" d="M866 1798l-198 -221h-107l154 221h151zM86 1434h156l372 -660l373 660h156l-453 -791v-643h-149v643z" />
<glyph unicode="&#xde;" d="M297 1434v-193h354q122 0 217.5 -43t154 -136.5t58.5 -225.5q0 -99 -34 -177.5t-93.5 -127t-136.5 -74t-166 -25.5h-354v-432h-150v1434h150zM627 563q61 0 113.5 15t96.5 46t69.5 85.5t25.5 126.5t-25.5 127t-69.5 86t-97 46t-113 15h-330v-547h330z" />
<glyph unicode="&#xdf;" d="M627 -20q-80 0 -133 20v121q52 -19 110 -19q135 0 218 89.5t83 220.5q0 101 -50 178.5t-124 116.5t-158 43v86q117 12 194 82t77 169q0 106 -71.5 175t-176.5 69q-118 0 -198.5 -88t-80.5 -219v-1024h-143v1024q0 79 28 154t80 137.5t136 100.5t186 38q167 0 278 -98.5 t111 -251.5q0 -115 -73.5 -200.5t-174.5 -106.5q36 -11 71 -27t80.5 -49t78.5 -74t56.5 -106t23.5 -142q0 -181 -118.5 -300t-309.5 -119z" />
<glyph unicode="&#xe0;" d="M565 1495l185 -307h-107l-225 307h147zM530 -20q-153 0 -244 85t-91 214q0 102 55.5 178.5t148 113t223 23t269.5 -83.5v164q0 120 -74.5 184t-183.5 64q-118 0 -190 -68.5t-72 -151.5h-135q0 97 58 176.5t149.5 122.5t193.5 43q180 0 288.5 -101t108.5 -277v-666h-112 l-23 141q-142 -161 -369 -161zM551 100q85 0 163.5 27.5t127.5 75.5t49 104v92q-105 53 -197.5 73t-156 10.5t-110 -38.5t-68 -70t-21.5 -87q0 -89 62.5 -138t150.5 -49z" />
<glyph unicode="&#xe1;" d="M934 1495l-225 -307h-107l184 307h148zM530 -20q-153 0 -244 85t-91 214q0 102 55.5 178.5t148 113t223 23t269.5 -83.5v164q0 120 -74.5 184t-183.5 64q-118 0 -190 -68.5t-72 -151.5h-135q0 97 58 176.5t149.5 122.5t193.5 43q180 0 288.5 -101t108.5 -277v-666h-112 l-23 141q-142 -161 -369 -161zM551 100q85 0 163.5 27.5t127.5 75.5t49 104v92q-105 53 -197.5 73t-156 10.5t-110 -38.5t-68 -70t-21.5 -87q0 -89 62.5 -138t150.5 -49z" />
<glyph unicode="&#xe2;" d="M711 1495l250 -307h-125l-181 233l-180 -233h-125l250 307h111zM530 -20q-153 0 -244 85t-91 214q0 102 55.5 178.5t148 113t223 23t269.5 -83.5v164q0 120 -74.5 184t-183.5 64q-118 0 -190 -68.5t-72 -151.5h-135q0 97 58 176.5t149.5 122.5t193.5 43q180 0 288.5 -101 t108.5 -277v-666h-112l-23 141q-142 -161 -369 -161zM551 100q85 0 163.5 27.5t127.5 75.5t49 104v92q-105 53 -197.5 73t-156 10.5t-110 -38.5t-68 -70t-21.5 -87q0 -89 62.5 -138t150.5 -49z" />
<glyph unicode="&#xe3;" d="M307 1171q8 107 64 169.5t145 62.5q42 0 82.5 -23t67 -50t61 -50t66.5 -23q48 0 81.5 37t34.5 109h95q-8 -108 -63 -170t-144 -62q-42 0 -82.5 23t-67 50t-61 50t-66.5 23q-49 0 -83.5 -37t-35.5 -109h-94zM530 -20q-153 0 -244 85t-91 214q0 102 55.5 178.5t148 113 t223 23t269.5 -83.5v164q0 120 -74.5 184t-183.5 64q-118 0 -190 -68.5t-72 -151.5h-135q0 97 58 176.5t149.5 122.5t193.5 43q180 0 288.5 -101t108.5 -277v-666h-112l-23 141q-142 -161 -369 -161zM551 100q85 0 163.5 27.5t127.5 75.5t49 104v92q-105 53 -197.5 73 t-156 10.5t-110 -38.5t-68 -70t-21.5 -87q0 -89 62.5 -138t150.5 -49z" />
<glyph unicode="&#xe4;" d="M416 1196q-44 0 -75.5 31.5t-31.5 75.5t31.5 75t75.5 31q45 0 75.5 -30.5t30.5 -75.5t-30.5 -76t-75.5 -31zM895 1196q-45 0 -76 31t-31 76t31 75.5t76 30.5q44 0 75 -31t31 -75t-31 -75.5t-75 -31.5zM530 -20q-153 0 -244 85t-91 214q0 102 55.5 178.5t148 113t223 23 t269.5 -83.5v164q0 120 -74.5 184t-183.5 64q-118 0 -190 -68.5t-72 -151.5h-135q0 97 58 176.5t149.5 122.5t193.5 43q180 0 288.5 -101t108.5 -277v-666h-112l-23 141q-142 -161 -369 -161zM551 100q85 0 163.5 27.5t127.5 75.5t49 104v92q-105 53 -197.5 73t-156 10.5 t-110 -38.5t-68 -70t-21.5 -87q0 -89 62.5 -138t150.5 -49z" />
<glyph unicode="&#xe5;" d="M655 1153q-90 0 -150.5 60.5t-60.5 150.5t60.5 150.5t150.5 60.5t150.5 -60.5t60.5 -150.5t-60.5 -150.5t-150.5 -60.5zM655 1231q57 0 95 37.5t38 95.5t-38 95.5t-95 37.5t-95 -37.5t-38 -95.5t38 -95.5t95 -37.5zM530 -20q-153 0 -244 85t-91 214q0 102 55.5 178.5 t148 113t223 23t269.5 -83.5v164q0 120 -74.5 184t-183.5 64q-118 0 -190 -68.5t-72 -151.5h-135q0 97 58 176.5t149.5 122.5t193.5 43q180 0 288.5 -101t108.5 -277v-666h-112l-23 141q-142 -161 -369 -161zM551 100q85 0 163.5 27.5t127.5 75.5t49 104v92 q-105 53 -197.5 73t-156 10.5t-110 -38.5t-68 -70t-21.5 -87q0 -89 62.5 -138t150.5 -49z" />
<glyph unicode="&#xe6;" d="M354 -20q-113 0 -179 86t-66 221q0 131 56 215.5t153.5 93t228.5 -85.5v172q0 118 -42.5 179t-103.5 61q-51 0 -87.5 -35t-52 -83t-15.5 -102h-96q0 151 70.5 246.5t182.5 95.5q80 0 140.5 -61t85.5 -168q35 107 95 168t140 61q61 0 112 -41t81 -103.5t46.5 -131 t16.5 -129.5q0 -95 -50 -136.5t-148 -41.5h-232q0 -157 46.5 -259t123.5 -102q57 0 96.5 62t49.5 145h102q-23 -167 -92.5 -247t-153.5 -80q-88 0 -145 62.5t-88 156.5q-37 -102 -112.5 -160.5t-162.5 -58.5zM891 553q59 0 92 25t33 73q0 97 -43.5 184t-110.5 87 q-43 0 -77.5 -33.5t-54.5 -88t-30 -118t-10 -129.5h201zM362 100q73 0 128 63.5t55 143.5v92q-67 52 -123 72t-92 10.5t-61.5 -38.5t-36.5 -69t-11 -87q0 -89 40 -138t101 -49z" />
<glyph unicode="&#xe7;" d="M633 119q97 0 173 53.5t112 163.5h149q-34 -144 -127 -234t-219 -114q100 -76 100 -183q0 -95 -76.5 -143.5t-178.5 -36.5t-175 76v109q67 -59 147.5 -80.5t136.5 5t56 95.5q0 79 -96 150h-2q-209 0 -340 150t-131 382t131 382t340 150q155 0 274.5 -93.5t159.5 -262.5 h-149q-36 110 -112 163.5t-173 53.5q-141 0 -231.5 -109t-90.5 -284t90.5 -284t231.5 -109z" />
<glyph unicode="&#xe8;" d="M524 1495l185 -307h-107l-225 307h147zM629 -20q-206 0 -336.5 150.5t-130.5 375.5q0 149 56 270.5t163.5 194.5t247.5 73q85 0 158.5 -27t123.5 -70t86.5 -96t53 -105t16.5 -97q0 -192 -254 -192h-504q0 -139 89.5 -238.5t228.5 -99.5q114 0 184.5 49t93.5 119h144 q-25 -105 -92 -176t-149.5 -101t-178.5 -30zM758 575q82 0 123 20t41 77q0 82 -83.5 157.5t-209.5 75.5q-76 0 -138.5 -31t-101 -80t-59.5 -106t-21 -113h449z" />
<glyph unicode="&#xe9;" d="M893 1495l-225 -307h-107l184 307h148zM629 -20q-206 0 -336.5 150.5t-130.5 375.5q0 149 56 270.5t163.5 194.5t247.5 73q85 0 158.5 -27t123.5 -70t86.5 -96t53 -105t16.5 -97q0 -192 -254 -192h-504q0 -139 89.5 -238.5t228.5 -99.5q114 0 184.5 49t93.5 119h144 q-25 -105 -92 -176t-149.5 -101t-178.5 -30zM758 575q82 0 123 20t41 77q0 82 -83.5 157.5t-209.5 75.5q-76 0 -138.5 -31t-101 -80t-59.5 -106t-21 -113h449z" />
<glyph unicode="&#xea;" d="M670 1495l250 -307h-125l-181 233l-180 -233h-125l250 307h111zM629 -20q-206 0 -336.5 150.5t-130.5 375.5q0 149 56 270.5t163.5 194.5t247.5 73q85 0 158.5 -27t123.5 -70t86.5 -96t53 -105t16.5 -97q0 -192 -254 -192h-504q0 -139 89.5 -238.5t228.5 -99.5 q114 0 184.5 49t93.5 119h144q-25 -105 -92 -176t-149.5 -101t-178.5 -30zM758 575q82 0 123 20t41 77q0 82 -83.5 157.5t-209.5 75.5q-76 0 -138.5 -31t-101 -80t-59.5 -106t-21 -113h449z" />
<glyph unicode="&#xeb;" d="M375 1196q-44 0 -75.5 31.5t-31.5 75.5t31.5 75t75.5 31q45 0 75.5 -30.5t30.5 -75.5t-30.5 -76t-75.5 -31zM854 1196q-45 0 -75.5 31t-30.5 76t30.5 75.5t75.5 30.5q44 0 75.5 -31t31.5 -75t-31.5 -75.5t-75.5 -31.5zM629 -20q-206 0 -336.5 150.5t-130.5 375.5 q0 149 56 270.5t163.5 194.5t247.5 73q85 0 158.5 -27t123.5 -70t86.5 -96t53 -105t16.5 -97q0 -192 -254 -192h-504q0 -139 89.5 -238.5t228.5 -99.5q114 0 184.5 49t93.5 119h144q-25 -105 -92 -176t-149.5 -101t-178.5 -30zM758 575q82 0 123 20t41 77q0 82 -83.5 157.5 t-209.5 75.5q-76 0 -138.5 -31t-101 -80t-59.5 -106t-21 -113h449z" />
<glyph unicode="&#xec;" d="M565 1495l185 -307h-107l-225 307h147zM625 127v770h-314v127h457v-897h313v-127h-893v127h437z" />
<glyph unicode="&#xed;" d="M934 1495l-225 -307h-107l184 307h148zM625 127v770h-314v127h457v-897h313v-127h-893v127h437z" />
<glyph unicode="&#xee;" d="M711 1495l250 -307h-125l-181 233l-180 -233h-125l250 307h111zM625 127v770h-314v127h457v-897h313v-127h-893v127h437z" />
<glyph unicode="&#xef;" d="M416 1196q-44 0 -75.5 31.5t-31.5 75.5t31.5 75t75.5 31q45 0 75.5 -30.5t30.5 -75.5t-30.5 -76t-75.5 -31zM895 1196q-45 0 -76 31t-31 76t31 75.5t76 30.5q44 0 75 -31t31 -75t-31 -75.5t-75 -31.5zM625 127v770h-314v127h457v-897h313v-127h-893v127h437z" />
<glyph unicode="&#xf0;" d="M598 -20q-190 0 -311 150.5t-121 381.5t120 381.5t304 150.5q92 0 176.5 -42t146.5 -119v313h-284v70h284v168h150v-168h147v-70h-147v-1196h-113l-22 141q-142 -161 -330 -161zM629 125q45 0 92.5 15.5t91.5 46t72 83.5t28 119v246q0 66 -28 119t-72 83.5t-91.5 46 t-92.5 15.5q-78 0 -140 -35.5t-99 -93t-56 -124t-19 -134.5t19 -134.5t56 -124t99 -93t140 -35.5z" />
<glyph unicode="&#xf1;" d="M266 1171q8 107 64 169.5t145 62.5q42 0 82.5 -23t67 -50t61 -50t66.5 -23q48 0 81.5 37t34.5 109h95q-8 -108 -63 -170t-144 -62q-42 0 -82.5 23t-67 50t-61 50t-66.5 23q-49 0 -83.5 -37t-35.5 -109h-94zM307 1024l23 -141q142 161 329 161q102 0 177 -33t117 -91.5 t61.5 -128t19.5 -152.5v-639h-149v616q0 61 -13.5 110t-43 89t-82 62t-125.5 22q-47 0 -94.5 -16t-89 -45.5t-67.5 -80.5t-26 -114v-643h-149v1024h112z" />
<glyph unicode="&#xf2;" d="M524 1495l185 -307h-107l-225 307h147zM614 -20q-209 0 -340 150t-131 382t131 382t340 150q211 0 341 -149t130 -383q0 -233 -130.5 -382.5t-340.5 -149.5zM614 119q142 0 232 105.5t90 287.5t-90 287.5t-232 105.5q-140 0 -230.5 -105.5t-90.5 -287.5t90.5 -287.5 t230.5 -105.5z" />
<glyph unicode="&#xf3;" d="M893 1495l-225 -307h-107l184 307h148zM614 -20q-209 0 -340 150t-131 382t131 382t340 150q211 0 341 -149t130 -383q0 -233 -130.5 -382.5t-340.5 -149.5zM614 119q142 0 232 105.5t90 287.5t-90 287.5t-232 105.5q-140 0 -230.5 -105.5t-90.5 -287.5t90.5 -287.5 t230.5 -105.5z" />
<glyph unicode="&#xf4;" d="M670 1495l250 -307h-125l-181 233l-180 -233h-125l250 307h111zM614 -20q-209 0 -340 150t-131 382t131 382t340 150q211 0 341 -149t130 -383q0 -233 -130.5 -382.5t-340.5 -149.5zM614 119q142 0 232 105.5t90 287.5t-90 287.5t-232 105.5q-140 0 -230.5 -105.5 t-90.5 -287.5t90.5 -287.5t230.5 -105.5z" />
<glyph unicode="&#xf5;" d="M266 1171q8 107 64 169.5t145 62.5q42 0 82.5 -23t67 -50t61 -50t66.5 -23q48 0 81.5 37t34.5 109h95q-8 -108 -63 -170t-144 -62q-42 0 -82.5 23t-67 50t-61 50t-66.5 23q-49 0 -83.5 -37t-35.5 -109h-94zM614 -20q-209 0 -340 150t-131 382t131 382t340 150 q211 0 341 -149t130 -383q0 -233 -130.5 -382.5t-340.5 -149.5zM614 119q142 0 232 105.5t90 287.5t-90 287.5t-232 105.5q-140 0 -230.5 -105.5t-90.5 -287.5t90.5 -287.5t230.5 -105.5z" />
<glyph unicode="&#xf6;" d="M375 1196q-44 0 -75.5 31.5t-31.5 75.5t31.5 75t75.5 31q45 0 75.5 -30.5t30.5 -75.5t-30.5 -76t-75.5 -31zM854 1196q-45 0 -75.5 31t-30.5 76t30.5 75.5t75.5 30.5q44 0 75.5 -31t31.5 -75t-31.5 -75.5t-75.5 -31.5zM614 -20q-209 0 -340 150t-131 382t131 382t340 150 q211 0 341 -149t130 -383q0 -233 -130.5 -382.5t-340.5 -149.5zM614 119q142 0 232 105.5t90 287.5t-90 287.5t-232 105.5q-140 0 -230.5 -105.5t-90.5 -287.5t90.5 -287.5t230.5 -105.5z" />
<glyph unicode="&#xf7;" d="M614 811q-52 0 -84 34.5t-32 82.5t32 82t84 34q51 0 84 -34.5t33 -81.5t-33 -82t-84 -35zM1065 569v-114h-901v114h901zM614 -20q-52 0 -84 34t-32 82t32 82.5t84 34.5q51 0 84 -35t33 -82t-33 -81.5t-84 -34.5z" />
<glyph unicode="&#xf8;" d="M905 942q85 -71 132.5 -183t47.5 -247q0 -233 -130.5 -382.5t-340.5 -149.5q-126 0 -229 59l-117 -203h-86l142 246q-86 71 -133.5 183t-47.5 247q0 232 131 382t340 150q130 0 230 -59l117 203h86zM287 512q0 -197 106 -309l383 665q-73 45 -162 45q-141 0 -234 -107.5 t-93 -293.5zM614 111q143 0 235.5 107t92.5 294q0 203 -106 309l-383 -665q73 -45 161 -45z" />
<glyph unicode="&#xf9;" d="M524 1495l185 -307h-107l-225 307h147zM569 -20q-82 0 -147 22.5t-107 60t-69.5 90t-39 110t-11.5 122.5v639h149v-616q0 -61 13.5 -110t43 -89t82 -62t125.5 -22q47 0 94.5 16t89 45.5t67.5 80.5t26 114v643h149v-1024h-112l-23 141q-142 -161 -330 -161z" />
<glyph unicode="&#xfa;" d="M893 1495l-225 -307h-107l184 307h148zM569 -20q-82 0 -147 22.5t-107 60t-69.5 90t-39 110t-11.5 122.5v639h149v-616q0 -61 13.5 -110t43 -89t82 -62t125.5 -22q47 0 94.5 16t89 45.5t67.5 80.5t26 114v643h149v-1024h-112l-23 141q-142 -161 -330 -161z" />
<glyph unicode="&#xfb;" d="M670 1495l250 -307h-125l-181 233l-180 -233h-125l250 307h111zM569 -20q-82 0 -147 22.5t-107 60t-69.5 90t-39 110t-11.5 122.5v639h149v-616q0 -61 13.5 -110t43 -89t82 -62t125.5 -22q47 0 94.5 16t89 45.5t67.5 80.5t26 114v643h149v-1024h-112l-23 141 q-142 -161 -330 -161z" />
<glyph unicode="&#xfc;" d="M375 1196q-44 0 -75.5 31.5t-31.5 75.5t31.5 75t75.5 31q45 0 75.5 -30.5t30.5 -75.5t-30.5 -76t-75.5 -31zM854 1196q-45 0 -75.5 31t-30.5 76t30.5 75.5t75.5 30.5q44 0 75.5 -31t31.5 -75t-31.5 -75.5t-75.5 -31.5zM569 -20q-82 0 -147 22.5t-107 60t-69.5 90t-39 110 t-11.5 122.5v639h149v-616q0 -61 13.5 -110t43 -89t82 -62t125.5 -22q47 0 94.5 16t89 45.5t67.5 80.5t26 114v643h149v-1024h-112l-23 141q-142 -161 -330 -161z" />
<glyph unicode="&#xfd;" d="M893 1495l-225 -307h-107l184 307h148zM354 -430q-130 0 -221 82v139q104 -94 197 -94q33 0 56 5.5t49 23.5t49.5 55t47.5 96l48 123l-396 1024h158l301 -827l291 827h158l-422 -1153q-17 -45 -31 -77.5t-42 -78t-59 -74.5t-79.5 -50t-104.5 -21z" />
<glyph unicode="&#xfe;" d="M315 1434v-551q61 76 146.5 118.5t177.5 42.5q184 0 304 -150.5t120 -381.5t-120 -381.5t-304 -150.5q-92 0 -177.5 42.5t-146.5 118.5v-551h-149v1844h149zM600 125q63 0 115.5 23.5t88.5 62.5t61 89.5t36.5 104t11.5 107.5t-11.5 107.5t-36.5 104t-61 89.5t-88.5 62.5 t-115.5 23.5q-45 0 -92.5 -15.5t-92 -46t-72.5 -83.5t-28 -119v-246q0 -66 28 -119t72.5 -83.5t92 -46t92.5 -15.5z" />
<glyph unicode="&#xff;" d="M375 1196q-44 0 -75.5 31.5t-31.5 75.5t31.5 75t75.5 31q45 0 75.5 -30.5t30.5 -75.5t-30.5 -76t-75.5 -31zM854 1196q-45 0 -75.5 31t-30.5 76t30.5 75.5t75.5 30.5q44 0 75.5 -31t31.5 -75t-31.5 -75.5t-75.5 -31.5zM354 -430q-130 0 -221 82v139q104 -94 197 -94 q33 0 56 5.5t49 23.5t49.5 55t47.5 96l48 123l-396 1024h158l301 -827l291 827h158l-422 -1153q-17 -45 -31 -77.5t-42 -78t-59 -74.5t-79.5 -50t-104.5 -21z" />
<glyph unicode="&#x131;" d="M625 127v770h-314v127h457v-897h313v-127h-893v127h437z" />
<glyph unicode="&#x152;" d="M645 0q-256 0 -388 181t-132 536t132 536t388 181h459v-123h-354v-533h313v-123h-313v-532h354v-123h-459zM616 1311q-155 0 -248.5 -156t-93.5 -438t93.5 -438t248.5 -156v1188z" />
<glyph unicode="&#x153;" d="M381 -20q-86 0 -148 69.5t-93 188.5t-31 274t31 274t93 188.5t148 69.5t145.5 -69t89.5 -197q75 266 242 266q63 0 115.5 -41t83 -103.5t47 -130.5t16.5 -130q0 -95 -51.5 -136.5t-155.5 -41.5h-227q0 -62 10 -123t29.5 -115t53.5 -87.5t77 -33.5q56 0 95.5 61.5 t49.5 143.5h107q-23 -165 -96.5 -246t-155.5 -81q-165 0 -240 266q-31 -128 -90.5 -197t-144.5 -69zM381 102q76 0 119 107.5t43 302.5t-43 302.5t-119 107.5q-74 0 -117 -107.5t-43 -302.5t43 -302.5t117 -107.5zM883 551q59 0 93 27t34 77q0 58 -17.5 118t-53.5 104.5 t-81 44.5q-44 0 -78.5 -33.5t-54 -88.5t-29.5 -118.5t-10 -130.5h197z" />
<glyph unicode="&#x174;" d="M676 1823l256 -246h-144l-174 192l-174 -192h-143l256 246h123zM238 1434l135 -1155l194 725h95l194 -725l135 1155h152l-178 -1434h-144l-207 758l-206 -758h-144l-178 1434h152z" />
<glyph unicode="&#x175;" d="M670 1495l250 -307h-125l-181 233l-180 -233h-125l250 307h111zM279 1024l135 -821l155 530h90l156 -530l135 821h152l-182 -1024h-156l-150 524l-149 -524h-156l-182 1024h152z" />
<glyph unicode="&#x176;" d="M676 1823l256 -246h-144l-174 192l-174 -192h-143l256 246h123zM86 1434h156l372 -660l373 660h156l-453 -791v-643h-149v643z" />
<glyph unicode="&#x177;" d="M670 1495l250 -307h-125l-181 233l-180 -233h-125l250 307h111zM354 -430q-130 0 -221 82v139q104 -94 197 -94q33 0 56 5.5t49 23.5t49.5 55t47.5 96l48 123l-396 1024h158l301 -827l291 827h158l-422 -1153q-17 -45 -31 -77.5t-42 -78t-59 -74.5t-79.5 -50t-104.5 -21z " />
<glyph unicode="&#x178;" d="M375 1565q-44 0 -75.5 31t-31.5 75t31.5 75.5t75.5 31.5q45 0 75.5 -31t30.5 -76t-30.5 -75.5t-75.5 -30.5zM854 1565q-45 0 -75.5 30.5t-30.5 75.5t30.5 76t75.5 31q44 0 75.5 -31.5t31.5 -75.5t-31.5 -75t-75.5 -31zM86 1434h156l372 -660l373 660h156l-453 -791v-643 h-149v643z" />
<glyph unicode="&#x300;" horiz-adv-x="0" d="M-705 1495l185 -307h-107l-225 307h147z" />
<glyph unicode="&#x301;" horiz-adv-x="0" d="M-336 1495l-225 -307h-107l185 307h147z" />
<glyph unicode="&#x302;" horiz-adv-x="0" d="M-559 1495l250 -307h-125l-180 233l-181 -233h-125l250 307h111z" />
<glyph unicode="&#x303;" horiz-adv-x="0" d="M-963 1171q8 107 64 169.5t145 62.5q42 0 82.5 -23t67 -50t61 -50t66.5 -23q48 0 82 37t35 109h94q-8 -108 -63 -170t-144 -62q-42 0 -82.5 23t-67 50t-61 50t-66.5 23q-48 0 -82.5 -37t-35.5 -109h-95z" />
<glyph unicode="&#x307;" horiz-adv-x="0" d="M-614 1196q-45 0 -76 31t-31 76t30.5 75.5t76.5 30.5q44 0 75 -31t31 -75t-31 -75.5t-75 -31.5z" />
<glyph unicode="&#x308;" horiz-adv-x="0" d="M-854 1196q-44 0 -75.5 31.5t-31.5 75.5t31.5 75t75.5 31q45 0 75.5 -30.5t30.5 -75.5t-30.5 -76t-75.5 -31zM-375 1196q-45 0 -75.5 31t-30.5 76t30.5 75.5t75.5 30.5q44 0 75.5 -31t31.5 -75t-31.5 -75.5t-75.5 -31.5z" />
<glyph unicode="&#x30a;" horiz-adv-x="0" d="M-614 1153q-90 0 -150.5 60.5t-60.5 150.5t60.5 150.5t150.5 60.5t150.5 -60.5t60.5 -150.5t-60.5 -150.5t-150.5 -60.5zM-614 1231q57 0 95 37.5t38 95.5t-38 95.5t-95 37.5t-95.5 -37.5t-38.5 -95.5t38.5 -95.5t95.5 -37.5z" />
<glyph unicode="&#x327;" horiz-adv-x="0" d="M-842 -190q67 -59 147.5 -80.5t136.5 5t56 95.5q0 91 -127 170l90 6q127 -82 127 -201q0 -95 -76.5 -143.5t-178.5 -36.5t-175 76v109z" />
<glyph unicode="&#x335;" horiz-adv-x="0" d="M-465 555v-86h-579v86h579z" />
<glyph unicode="&#x337;" horiz-adv-x="0" d="M-182 1188l-779 -1352h-86l779 1352h86z" />
<glyph unicode="&#x338;" horiz-adv-x="0" d="M-76 1556l-991 -1720h-86l991 1720h86z" />
<glyph unicode="&#x1e80;" d="M514 1798l154 -221h-107l-199 221h152zM238 1434l135 -1155l194 725h95l194 -725l135 1155h152l-178 -1434h-144l-207 758l-206 -758h-144l-178 1434h152z" />
<glyph unicode="&#x1e81;" d="M524 1495l185 -307h-107l-225 307h147zM279 1024l135 -821l155 530h90l156 -530l135 821h152l-182 -1024h-156l-150 524l-149 -524h-156l-182 1024h152z" />
<glyph unicode="&#x1e82;" d="M866 1798l-198 -221h-107l154 221h151zM238 1434l135 -1155l194 725h95l194 -725l135 1155h152l-178 -1434h-144l-207 758l-206 -758h-144l-178 1434h152z" />
<glyph unicode="&#x1e83;" d="M893 1495l-225 -307h-107l184 307h148zM279 1024l135 -821l155 530h90l156 -530l135 821h152l-182 -1024h-156l-150 524l-149 -524h-156l-182 1024h152z" />
<glyph unicode="&#x1e84;" d="M375 1565q-44 0 -75.5 31t-31.5 75t31.5 75.5t75.5 31.5q45 0 75.5 -31t30.5 -76t-30.5 -75.5t-75.5 -30.5zM854 1565q-45 0 -75.5 30.5t-30.5 75.5t30.5 76t75.5 31q44 0 75.5 -31.5t31.5 -75.5t-31.5 -75t-75.5 -31zM238 1434l135 -1155l194 725h95l194 -725l135 1155 h152l-178 -1434h-144l-207 758l-206 -758h-144l-178 1434h152z" />
<glyph unicode="&#x1e85;" d="M375 1196q-44 0 -75.5 31.5t-31.5 75.5t31.5 75t75.5 31q45 0 75.5 -30.5t30.5 -75.5t-30.5 -76t-75.5 -31zM854 1196q-45 0 -75.5 31t-30.5 76t30.5 75.5t75.5 30.5q44 0 75.5 -31t31.5 -75t-31.5 -75.5t-75.5 -31.5zM279 1024l135 -821l155 530h90l156 -530l135 821 h152l-182 -1024h-156l-150 524l-149 -524h-156l-182 1024h152z" />
<glyph unicode="&#x1ef2;" d="M514 1798l154 -221h-107l-199 221h152zM86 1434h156l372 -660l373 660h156l-453 -791v-643h-149v643z" />
<glyph unicode="&#x1ef3;" d="M524 1495l185 -307h-107l-225 307h147zM354 -430q-130 0 -221 82v139q104 -94 197 -94q33 0 56 5.5t49 23.5t49.5 55t47.5 96l48 123l-396 1024h158l301 -827l291 827h158l-422 -1153q-17 -45 -31 -77.5t-42 -78t-59 -74.5t-79.5 -50t-104.5 -21z" />
<glyph unicode="&#x2000;" horiz-adv-x="911" />
<glyph unicode="&#x2001;" horiz-adv-x="1823" />
<glyph unicode="&#x2002;" horiz-adv-x="911" />
<glyph unicode="&#x2003;" horiz-adv-x="1823" />
<glyph unicode="&#x2004;" horiz-adv-x="607" />
<glyph unicode="&#x2005;" horiz-adv-x="455" />
<glyph unicode="&#x2006;" horiz-adv-x="303" />
<glyph unicode="&#x2007;" horiz-adv-x="303" />
<glyph unicode="&#x2008;" horiz-adv-x="227" />
<glyph unicode="&#x2009;" horiz-adv-x="364" />
<glyph unicode="&#x200a;" horiz-adv-x="101" />
<glyph unicode="&#x2010;" d="M901 573v-122h-573v122h573z" />
<glyph unicode="&#x2011;" d="M901 573v-122h-573v122h573z" />
<glyph unicode="&#x2012;" d="M901 573v-122h-573v122h573z" />
<glyph unicode="&#x2013;" d="M1065 573v-122h-901v122h901z" />
<glyph unicode="&#x2014;" d="M1229 573v-122h-1229v122h1229z" />
<glyph unicode="&#x2018;" d="M432 1454h170l191 -430h-125z" />
<glyph unicode="&#x2019;" d="M795 1454l-236 -430h-125l191 430h170z" />
<glyph unicode="&#x201a;" d="M793 266l-236 -446h-123l189 446h170z" />
<glyph unicode="&#x201c;" d="M258 1454h170l188 -446h-122zM606 1454h170l191 -446h-125z" />
<glyph unicode="&#x201d;" d="M621 1454l-236 -446h-125l191 446h170zM969 1454l-236 -446h-123l189 446h170z" />
<glyph unicode="&#x201e;" d="M616 266l-235 -446h-123l188 446h170zM967 266l-236 -446h-125l191 446h170z" />
<glyph unicode="&#x2022;" d="M614 514q-82 0 -138 58t-56 139q0 84 55.5 142t138.5 58q84 0 139.5 -58t55.5 -142q0 -81 -56 -139t-139 -58z" />
<glyph unicode="&#x2026;" d="M150 -20q-46 0 -77.5 31t-31.5 75q0 46 31.5 77.5t77.5 31.5q44 0 75 -31.5t31 -77.5q0 -44 -31 -75t-75 -31zM614 -20q-45 0 -75.5 30.5t-30.5 75.5q0 46 30.5 77.5t75.5 31.5q44 0 75.5 -31.5t31.5 -77.5q0 -44 -31.5 -75t-75.5 -31zM1079 -20q-44 0 -75 31t-31 75 q0 46 31 77.5t75 31.5q46 0 77.5 -31.5t31.5 -77.5q0 -44 -31.5 -75t-77.5 -31z" />
<glyph unicode="&#x202f;" horiz-adv-x="364" />
<glyph unicode="&#x2039;" d="M387 537l457 409v-160l-316 -274l316 -274v-160l-457 409v50z" />
<glyph unicode="&#x203a;" d="M702 512l-315 274v160l457 -409v-50l-457 -409v160z" />
<glyph unicode="&#x2044;" d="M981 1454l-590 -1474h-143l590 1474h143z" />
<glyph unicode="&#x205f;" horiz-adv-x="455" />
<glyph unicode="&#x20ac;" d="M799 1325q-148 0 -241.5 -108.5t-117.5 -342.5h308v-83h-312q-2 -25 -2 -74t2 -74h312v-84h-306q24 -229 117.5 -339.5t239.5 -110.5q131 0 225 61v-133q-100 -57 -233 -57q-208 0 -336.5 143.5t-155.5 435.5h-156v84h150v148h-150v83h156q27 292 155.5 436t336.5 144 q136 0 233 -57v-133q-89 61 -225 61z" />
<glyph unicode="&#x2122;" d="M57 1356v98h508v-98h-203v-553h-102v553h-203zM739 1454l162 -344l162 344h108v-651h-100v497l-153 -325h-33l-154 325v-497h-100v651h108z" />
<glyph unicode="&#x2212;" d="M1065 573v-122h-901v122h901z" />
<glyph unicode="&#x221e;" d="M389 223q-119 0 -189.5 79.5t-70.5 207.5q0 130 70.5 210.5t189.5 80.5q75 0 137.5 -41.5t87.5 -108.5q26 67 89.5 108.5t140.5 41.5q116 0 186 -80.5t70 -210.5q0 -127 -70 -207t-186 -80q-77 0 -140.5 41.5t-89.5 108.5q-25 -67 -87.5 -108.5t-137.5 -41.5zM401 332 q66 0 107 48.5t41 129.5q0 84 -40 133t-108 49q-74 0 -118.5 -51.5t-44.5 -130.5q0 -77 44.5 -127.5t118.5 -50.5zM831 332q70 0 115 51t45 127q0 79 -44.5 130.5t-115.5 51.5q-70 0 -110.5 -48.5t-40.5 -133.5q0 -82 40.5 -130t110.5 -48z" />
<glyph unicode="&#x2248;" d="M131 594q47 117 125 180.5t170 63.5q47 0 102 -23.5t96.5 -51.5t89 -51.5t81.5 -23.5q122 0 190 150h113q-47 -117 -124 -180.5t-169 -63.5q-47 0 -102 23.5t-96.5 51t-89 51t-81.5 23.5q-125 0 -192 -149h-113zM131 186q47 117 125 180.5t170 63.5q47 0 102 -23.5 t96.5 -51t89 -51t81.5 -23.5q123 0 190 149h113q-47 -117 -124 -180.5t-169 -63.5q-47 0 -102 23.5t-96.5 51.5t-89 51.5t-81.5 23.5q-124 0 -192 -150h-113z" />
<glyph unicode="&#x2260;" d="M621 358h444v-114h-490l-96 -244h-135l98 244h-278v114h323l123 308h-446v114h491l97 244h135l-99 -244h277v-114h-322z" />
<glyph unicode="&#x2264;" d="M262 678l705 393v-153l-504 -265l504 -264v-153l-705 393v49zM967 123v-123h-705v123h705z" />
<glyph unicode="&#x2265;" d="M766 653l-504 265v153l705 -393v-49l-705 -393v153zM967 123v-123h-705v123h705z" />
<glyph unicode="&#x25fc;" horiz-adv-x="1024" d="M0 1024h1024v-1024h-1024v1024z" />
<glyph d="M166 512q0 230 123.5 381t308.5 151q188 0 330 -161l22 141h113v-1024h-113l-22 141q-142 -161 -330 -161q-190 0 -311 150.5t-121 381.5zM315 512q0 -68 19 -134.5t56 -124t99 -93t140 -35.5q45 0 92.5 15.5t91.5 46t72 83.5t28 119v246q0 66 -28 119t-72 83.5t-91.5 46 t-92.5 15.5q-78 0 -140 -35.5t-99 -93t-56 -124t-19 -134.5z" />
<glyph d="M934 1495l-225 -307h-107l184 307h148zM166 512q0 230 123.5 381t308.5 151q188 0 330 -161l22 141h113v-1024h-113l-22 141q-142 -161 -330 -161q-190 0 -311 150.5t-121 381.5zM315 512q0 -68 19 -134.5t56 -124t99 -93t140 -35.5q45 0 92.5 15.5t91.5 46t72 83.5 t28 119v246q0 66 -28 119t-72 83.5t-91.5 46t-92.5 15.5q-78 0 -140 -35.5t-99 -93t-56 -124t-19 -134.5z" />
<glyph d="M711 1495l250 -307h-125l-181 233l-180 -233h-125l250 307h111zM166 512q0 230 123.5 381t308.5 151q188 0 330 -161l22 141h113v-1024h-113l-22 141q-142 -161 -330 -161q-190 0 -311 150.5t-121 381.5zM315 512q0 -68 19 -134.5t56 -124t99 -93t140 -35.5 q45 0 92.5 15.5t91.5 46t72 83.5t28 119v246q0 66 -28 119t-72 83.5t-91.5 46t-92.5 15.5q-78 0 -140 -35.5t-99 -93t-56 -124t-19 -134.5z" />
<glyph d="M416 1196q-44 0 -75.5 31.5t-31.5 75.5t31.5 75t75.5 31q45 0 75.5 -30.5t30.5 -75.5t-30.5 -76t-75.5 -31zM895 1196q-45 0 -76 31t-31 76t31 75.5t76 30.5q44 0 75 -31t31 -75t-31 -75.5t-75 -31.5zM166 512q0 230 123.5 381t308.5 151q188 0 330 -161l22 141h113 v-1024h-113l-22 141q-142 -161 -330 -161q-190 0 -311 150.5t-121 381.5zM315 512q0 -68 19 -134.5t56 -124t99 -93t140 -35.5q45 0 92.5 15.5t91.5 46t72 83.5t28 119v246q0 66 -28 119t-72 83.5t-91.5 46t-92.5 15.5q-78 0 -140 -35.5t-99 -93t-56 -124t-19 -134.5z" />
<glyph d="M565 1495l185 -307h-107l-225 307h147zM166 512q0 230 123.5 381t308.5 151q188 0 330 -161l22 141h113v-1024h-113l-22 141q-142 -161 -330 -161q-190 0 -311 150.5t-121 381.5zM315 512q0 -68 19 -134.5t56 -124t99 -93t140 -35.5q45 0 92.5 15.5t91.5 46t72 83.5 t28 119v246q0 66 -28 119t-72 83.5t-91.5 46t-92.5 15.5q-78 0 -140 -35.5t-99 -93t-56 -124t-19 -134.5z" />
<glyph d="M655 1153q-90 0 -150.5 60.5t-60.5 150.5t60.5 150.5t150.5 60.5t150.5 -60.5t60.5 -150.5t-60.5 -150.5t-150.5 -60.5zM655 1231q57 0 95 37.5t38 95.5t-38 95.5t-95 37.5t-95 -37.5t-38 -95.5t38 -95.5t95 -37.5zM166 512q0 230 123.5 381t308.5 151q188 0 330 -161 l22 141h113v-1024h-113l-22 141q-142 -161 -330 -161q-190 0 -311 150.5t-121 381.5zM315 512q0 -68 19 -134.5t56 -124t99 -93t140 -35.5q45 0 92.5 15.5t91.5 46t72 83.5t28 119v246q0 66 -28 119t-72 83.5t-91.5 46t-92.5 15.5q-78 0 -140 -35.5t-99 -93t-56 -124 t-19 -134.5z" />
<glyph d="M307 1171q8 107 64 169.5t145 62.5q42 0 82.5 -23t67 -50t61 -50t66.5 -23q48 0 81.5 37t34.5 109h95q-8 -108 -63 -170t-144 -62q-42 0 -82.5 23t-67 50t-61 50t-66.5 23q-49 0 -83.5 -37t-35.5 -109h-94zM166 512q0 230 123.5 381t308.5 151q188 0 330 -161l22 141h113 v-1024h-113l-22 141q-142 -161 -330 -161q-190 0 -311 150.5t-121 381.5zM315 512q0 -68 19 -134.5t56 -124t99 -93t140 -35.5q45 0 92.5 15.5t91.5 46t72 83.5t28 119v246q0 66 -28 119t-72 83.5t-91.5 46t-92.5 15.5q-78 0 -140 -35.5t-99 -93t-56 -124t-19 -134.5z" />
<glyph d="M309 455q0 -138 89.5 -237t228.5 -99q113 0 184 49.5t94 118.5h144q-25 -105 -92 -176t-149.5 -101t-178.5 -30q-206 0 -336.5 150.5t-130.5 375.5q0 148 56.5 270.5t162 195t240.5 72.5q136 0 238.5 -72.5t155 -196t52.5 -279.5v-41h-758zM920 578q0 56 -17.5 111.5 t-52 105t-93.5 80t-134 30.5q-74 0 -135.5 -30.5t-99.5 -79.5t-58.5 -105.5t-20.5 -111.5h611z" />
<glyph d="M893 1495l-225 -307h-107l184 307h148zM309 455q0 -138 89.5 -237t228.5 -99q113 0 184 49.5t94 118.5h144q-25 -105 -92 -176t-149.5 -101t-178.5 -30q-206 0 -336.5 150.5t-130.5 375.5q0 148 56.5 270.5t162 195t240.5 72.5q136 0 238.5 -72.5t155 -196t52.5 -279.5 v-41h-758zM920 578q0 56 -17.5 111.5t-52 105t-93.5 80t-134 30.5q-74 0 -135.5 -30.5t-99.5 -79.5t-58.5 -105.5t-20.5 -111.5h611z" />
<glyph d="M670 1495l250 -307h-125l-181 233l-180 -233h-125l250 307h111zM309 455q0 -138 89.5 -237t228.5 -99q113 0 184 49.5t94 118.5h144q-25 -105 -92 -176t-149.5 -101t-178.5 -30q-206 0 -336.5 150.5t-130.5 375.5q0 148 56.5 270.5t162 195t240.5 72.5q136 0 238.5 -72.5 t155 -196t52.5 -279.5v-41h-758zM920 578q0 56 -17.5 111.5t-52 105t-93.5 80t-134 30.5q-74 0 -135.5 -30.5t-99.5 -79.5t-58.5 -105.5t-20.5 -111.5h611z" />
<glyph d="M375 1196q-44 0 -75.5 31.5t-31.5 75.5t31.5 75t75.5 31q45 0 75.5 -30.5t30.5 -75.5t-30.5 -76t-75.5 -31zM854 1196q-45 0 -75.5 31t-30.5 76t30.5 75.5t75.5 30.5q44 0 75.5 -31t31.5 -75t-31.5 -75.5t-75.5 -31.5zM309 455q0 -138 89.5 -237t228.5 -99 q113 0 184 49.5t94 118.5h144q-25 -105 -92 -176t-149.5 -101t-178.5 -30q-206 0 -336.5 150.5t-130.5 375.5q0 148 56.5 270.5t162 195t240.5 72.5q136 0 238.5 -72.5t155 -196t52.5 -279.5v-41h-758zM920 578q0 56 -17.5 111.5t-52 105t-93.5 80t-134 30.5 q-74 0 -135.5 -30.5t-99.5 -79.5t-58.5 -105.5t-20.5 -111.5h611z" />
<glyph d="M524 1495l185 -307h-107l-225 307h147zM309 455q0 -138 89.5 -237t228.5 -99q113 0 184 49.5t94 118.5h144q-25 -105 -92 -176t-149.5 -101t-178.5 -30q-206 0 -336.5 150.5t-130.5 375.5q0 148 56.5 270.5t162 195t240.5 72.5q136 0 238.5 -72.5t155 -196t52.5 -279.5 v-41h-758zM920 578q0 56 -17.5 111.5t-52 105t-93.5 80t-134 30.5q-74 0 -135.5 -30.5t-99.5 -79.5t-58.5 -105.5t-20.5 -111.5h611z" />
<glyph d="M1063 8q0 -89 -27.5 -168t-80.5 -142t-138.5 -99.5t-193.5 -36.5q-100 0 -180.5 31t-128 80.5t-72.5 106.5t-25 114h143q0 -81 70 -144t188 -63q136 0 215.5 83t79.5 238v133q-62 -77 -146.5 -119t-176.5 -42q-184 0 -304 150.5t-120 381.5t121 381.5t311 150.5 q188 0 330 -161l22 141h113v-1016zM629 125q45 0 92.5 15.5t91.5 46t72 83.5t28 119v246q0 66 -28 119t-72 83.5t-91.5 46t-92.5 15.5q-78 0 -140 -35.5t-99 -93t-56 -124t-19 -134.5t19 -134.5t56 -124t99 -93t140 -35.5z" />
<glyph d="M180 1024h154l301 -856l297 856h155l-528 -1434h-149l157 410z" />
<glyph d="M893 1495l-225 -307h-107l184 307h148zM180 1024h154l301 -856l297 856h155l-528 -1434h-149l157 410z" />
<glyph d="M670 1495l250 -307h-125l-181 233l-180 -233h-125l250 307h111zM180 1024h154l301 -856l297 856h155l-528 -1434h-149l157 410z" />
<glyph d="M375 1196q-44 0 -75.5 31.5t-31.5 75.5t31.5 75t75.5 31q45 0 75.5 -30.5t30.5 -75.5t-30.5 -76t-75.5 -31zM854 1196q-45 0 -75.5 31t-30.5 76t30.5 75.5t75.5 30.5q44 0 75.5 -31t31.5 -75t-31.5 -75.5t-75.5 -31.5zM180 1024h154l301 -856l297 856h155l-528 -1434 h-149l157 410z" />
<glyph d="M524 1495l185 -307h-107l-225 307h147zM180 1024h154l301 -856l297 856h155l-528 -1434h-149l157 410z" />
<glyph d="M614 1044q208 0 339.5 -151.5t131.5 -380.5q0 -149 -58 -270t-166.5 -191.5t-246.5 -70.5t-246 70.5t-166.5 191.5t-58.5 270t58.5 270t166.5 191.5t246 70.5zM614 913q-149 0 -238 -113.5t-89 -287.5q0 -95 30 -172.5t84 -128.5l381 653q-70 49 -168 49zM614 111 q150 0 239 113t89 288q0 94 -30 171.5t-85 127.5l-378 -653q71 -47 165 -47z" />
<glyph d="M582 123v708q-42 -48 -123.5 -85t-167.5 -37v122q92 0 191.5 58t129.5 135h119v-901h371v-123h-893v123h373z" />
<glyph d="M178 100q0 84 31.5 134.5t93.5 99.5q128 95 256 171.5t189.5 107t100 66t38.5 79.5q0 70 -75.5 117t-174.5 47q-80 0 -141.5 -22.5t-95 -57t-50 -70t-16.5 -67.5h-135q0 59 28.5 118t81 109t139.5 81t193 31q169 0 279 -83t110 -193q0 -53 -20.5 -95t-53.5 -72 t-91.5 -65.5t-118.5 -65.5t-152 -82.5t-174 -106.5q-64 -42 -81 -70.5t-17 -87.5h729v-123h-873v100z" />
<glyph d="M614 -430q-112 0 -199.5 35.5t-141.5 97t-81.5 141t-27.5 172.5h135q0 -137 84 -226t227 -89q125 0 215 81t90 210q0 92 -54 160t-132 100t-166 33v104q70 1 140.5 35t120.5 99.5t50 144.5q0 108 -75.5 175.5t-175.5 67.5q-127 0 -205 -87t-78 -226h-135q0 123 48 223 t147 161.5t235 61.5q103 0 192 -45.5t143 -128t54 -184.5q0 -80 -38 -150t-91 -114.5t-121 -77.5q128 -44 209.5 -133.5t81.5 -222.5q0 -183 -131 -300.5t-320 -117.5z" />
<glyph d="M147 -119v113l637 1030h136v-1018h161v-125h-161v-291h-150v291h-623zM770 780l-481 -774h481v774z" />
<glyph d="M596 -430q-154 0 -268.5 89t-159.5 247h135q38 -99 118.5 -152t170.5 -53q143 0 231 99.5t88 254.5q0 154 -82.5 258.5t-218.5 104.5q-88 0 -167.5 -56.5t-120.5 -148.5h-125l94 811h729v-123h-608l-60 -532q59 79 140 125.5t172 46.5q165 0 281 -137t116 -341 q0 -214 -130 -353.5t-335 -139.5z" />
<glyph d="M614 -20q-138 0 -241.5 74t-156 197t-52.5 275q0 202 21.5 358t61.5 263.5t100 176t133 99.5t165 31q143 0 247 -91.5t132 -258.5h-135q-14 76 -54 129t-87.5 75.5t-98.5 22.5q-71 0 -126 -31t-91.5 -84t-62 -131.5t-38 -164t-18.5 -191.5q52 106 144 163.5t188 57.5 q116 0 213 -66.5t152 -177.5t55 -241t-56 -240.5t-160.5 -177.5t-234.5 -67zM614 102q87 0 157.5 54t107 136.5t36.5 172.5t-36.5 172.5t-107 136t-157.5 53.5q-120 0 -210.5 -97.5t-90.5 -252.5q0 -49 11.5 -100t36 -100.5t59 -88t85 -62.5t109.5 -24z" />
<glyph d="M418 -410q0 383 117 695t372 616h-739v123h893v-111q-259 -313 -378.5 -624.5t-119.5 -698.5h-145z" />
<glyph d="M614 -20q-202 0 -336.5 123.5t-134.5 310.5q0 131 76.5 235t196.5 148q-91 39 -151 123t-60 180q0 154 119 254t290 100t290.5 -100t119.5 -254q0 -96 -60 -180t-151 -123q120 -44 196 -148t76 -235q0 -187 -134.5 -310.5t-336.5 -123.5zM614 850q102 0 181 65.5 t79 165.5q0 104 -76 173t-184 69t-184 -69t-76 -173q0 -100 79 -165.5t181 -65.5zM614 113q136 0 229 90.5t93 222.5q0 129 -92 216t-230 87t-229.5 -87t-91.5 -216q0 -132 92.5 -222.5t228.5 -90.5z" />
<glyph d="M584 -430q-143 0 -247 91.5t-132 258.5h135q14 -76 54 -129t87.5 -75.5t98.5 -22.5q71 0 126 31t91.5 84t61.5 131.5t37.5 164t18.5 191.5q-52 -106 -143.5 -163.5t-187.5 -57.5q-123 0 -220 66.5t-148.5 177t-51.5 241.5q0 132 52.5 241t156.5 176.5t241 67.5 q141 0 245 -74.5t155 -196.5t51 -275q0 -202 -21.5 -358t-61.5 -263.5t-100 -176t-133 -99.5t-165 -31zM614 205q121 0 211 94t90 248q0 62 -18 124.5t-53 117.5t-95 89.5t-135 34.5q-93 0 -163.5 -52t-104 -131t-33.5 -171t33.5 -171t104 -131t163.5 -52z" />
<glyph horiz-adv-x="0" d="M-362 1798l-199 -221h-107l154 221h152z" />
<glyph horiz-adv-x="0" d="M-553 1823l256 -246h-143l-174 192l-174 -192h-144l256 246h123z" />
<glyph horiz-adv-x="0" d="M-854 1565q-44 0 -75.5 31t-31.5 75t31.5 75.5t75.5 31.5q45 0 75.5 -31t30.5 -76t-30.5 -75.5t-75.5 -30.5zM-375 1565q-45 0 -75.5 30.5t-30.5 75.5t30.5 76t75.5 31q44 0 75.5 -31.5t31.5 -75.5t-31.5 -75t-75.5 -31z" />
<glyph horiz-adv-x="0" d="M-614 1565q-46 0 -76.5 30.5t-30.5 75.5t31 76t76 31q44 0 75 -31.5t31 -75.5t-31 -75t-75 -31z" />
<glyph horiz-adv-x="0" d="M-715 1798l154 -221h-107l-198 221h151z" />
<glyph horiz-adv-x="0" d="M-614 1403q-91 0 -151 60t-60 151q0 89 60 149t151 60t151 -60t60 -149q0 -91 -60 -151t-151 -60zM-614 1481q57 0 95 37.5t38 95.5q0 57 -38 94t-95 37t-95.5 -37t-38.5 -94q0 -58 38.5 -95.5t95.5 -37.5z" />
<glyph horiz-adv-x="0" d="M-963 1561q7 107 63.5 169t145.5 62q35 0 67 -15t57.5 -36t49 -42.5t50.5 -36.5t53 -15q48 0 82 36.5t35 108.5h94q-8 -107 -63 -169t-144 -62q-35 0 -67 15t-57.5 36.5t-49 42.5t-50.5 36t-53 15q-48 0 -82.5 -36.5t-35.5 -108.5h-95z" />
</font>
</defs>
</svg>
