<?xml version="1.0" encoding="UTF-8" standalone="no"?><!DOCTYPE svg PUBLIC "-//W3C//DTD SVG 1.1//EN" "http://www.w3.org/Graphics/SVG/1.1/DTD/svg11.dtd"><svg width="100%" height="100%" viewBox="0 0 1044 1200" version="1.1" xmlns="http://www.w3.org/2000/svg" xmlns:xlink="http://www.w3.org/1999/xlink" xml:space="preserve" style="fill-rule:evenodd;clip-rule:evenodd;stroke-miterlimit:1.41421;"><g><path d="M17.242,324.57l7.841,577.287l497.828,288.643l505.669,-284.693l3.917,-581.237l-505.669,-308.41l-509.586,308.41Z" style="fill:#f9d729;fill-rule:nonzero;"/><path d="M730.696,211.17l-206.018,-118.884c-0.275,-0.275 -0.542,-0.275 -0.817,-0.275l-0.267,0l-0.275,0c-0.275,0 -0.541,0 -0.816,0l-0.267,0l-0.275,0c-0.267,0 -0.808,0 -1.083,0c-0.275,0 -0.542,0.275 -0.817,0.275l-202.759,116.984c-2.442,1.358 -3.259,4.342 -1.9,6.792c1.358,2.441 4.616,3.25 6.783,1.899l180.234,-103.958l-76.542,97.708c-1.633,2.175 -1.358,5.434 0.809,7.059c2.175,1.633 5.433,1.358 7.058,-0.809l83.6,-106.675l0,104.225c0,2.717 2.175,5.159 5.159,5.159c2.991,0 5.158,-2.167 5.158,-5.159l0,-104.225l83.601,106.675c1.091,1.351 2.441,1.901 4.075,1.901c1.083,0 2.166,-0.275 2.983,-1.092c2.175,-1.625 2.442,-4.884 0.817,-7.059l-76.543,-97.708l183.485,105.859c0.816,0.541 1.633,0.541 2.441,0.541c1.634,0 3.534,-0.816 4.342,-2.442c1.092,-2.174 0.275,-5.433 -2.166,-6.791Z" style="fill:#1b4ba0;fill-rule:nonzero;"/><path d="M729.337,979.057c-1.358,-2.45 -4.617,-3.258 -6.783,-1.9l-179.96,103.959l76.543,-97.717c1.625,-2.175 1.358,-5.433 -0.817,-7.059c-2.167,-1.633 -5.425,-1.358 -7.058,0.817l-83.601,106.676l0,-114.35c0,-2.717 -2.167,-5.158 -5.158,-5.158c-2.984,0 -5.159,2.167 -5.159,5.158l0,114.35l-83.6,-106.676c-1.625,-2.175 -4.883,-2.45 -7.058,-0.817c-2.167,1.626 -2.442,4.884 -0.809,7.059l76.542,97.717l-183.492,-105.859c-2.442,-1.358 -5.425,-0.55 -6.784,1.9c-1.358,2.442 -0.541,5.425 1.9,6.784l206.018,118.883l0.275,0c0.267,0 0.267,0.275 0.542,0.275l0.816,0c0.267,0 0.809,0.267 1.084,0.267c0.541,0 0.816,0 1.083,-0.267l0.542,0c0.275,0 0.275,-0.275 0.541,-0.275l0.275,0l202.76,-116.983c1.9,-1.084 2.717,-4.342 1.358,-6.784Z" style="fill:#1b4ba0;fill-rule:nonzero;"/><path d="M742.912,963.307c3.442,0 6.242,2.8 6.242,6.25c0,3.442 -2.8,6.242 -6.242,6.242c-3.45,0 -6.25,-2.8 -6.25,-6.242c0,-3.45 2.8,-6.25 6.25,-6.25Z" style="fill:#1b4ba0;fill-rule:nonzero;"/><path d="M299.118,963.307c3.442,0 6.242,2.8 6.242,6.25c0,3.442 -2.8,6.242 -6.242,6.242c-3.45,0 -6.241,-2.8 -6.241,-6.242c0,-3.45 2.791,-6.25 6.241,-6.25Z" style="fill:#1b4ba0;fill-rule:nonzero;"/><path d="M1007.83,880.248l-485.594,280.127l-485.052,-280.127l-0.817,-560.503l485.869,-280.118l485.328,280.118l-0.6,259.218l0.6,0l0,1.359l-0.6,-0.992l0.866,300.918ZM1035.25,293.145l-503.786,-290.701c-5.7,-3.259 -12.758,-3.259 -18.458,0l-503.778,290.701c-5.7,3.259 -9.225,9.5 -9.225,16.017l0,581.678c0,6.508 3.525,12.758 9.225,16.008l503.778,290.71c2.991,1.625 5.975,2.442 9.233,2.442c3.258,0 6.508,-0.817 9.225,-2.442l503.786,-290.71c5.7,-3.25 9.225,-9.5 9.225,-16.008l0,-581.678c0,-6.517 -3.525,-12.758 -9.225,-16.017Z" style="fill:#1b4ba0;fill-rule:nonzero;"/><path d="M702.462,557.855c0,8.392 -7.208,15.192 -16.108,15.192c-8.9,0 -16.126,-6.8 -16.126,-15.192c0,-8.4 7.226,-15.2 16.126,-15.2c8.9,0 16.108,6.8 16.108,15.2Z" style="fill:#1b4ba0;fill-rule:nonzero;"/><path d="M285.576,721.847l53.317,-0.275l-0.175,29.209l-53.317,0.275l0.175,-29.209Z" style="fill:none;stroke-width:11.68px;stroke:#1b4ba0;"/><rect x="463.544" y="618.68" width="17.408" height="19.9" style="fill:#1b4ba0;fill-rule:nonzero;"/><rect x="496.653" y="618.68" width="17.408" height="19.9" style="fill:#1b4ba0;fill-rule:nonzero;"/><rect x="529.761" y="618.68" width="17.408" height="19.9" style="fill:#1b4ba0;fill-rule:nonzero;"/><rect x="496.469" y="576.305" width="17.417" height="17.683" style="fill:#1b4ba0;fill-rule:nonzero;"/><rect x="529.578" y="576.305" width="17.417" height="17.683" style="fill:#1b4ba0;fill-rule:nonzero;"/><rect x="562.861" y="618.68" width="17.417" height="19.9" style="fill:#1b4ba0;fill-rule:nonzero;"/><rect x="463.544" y="659.981" width="17.408" height="19.908" style="fill:#1b4ba0;fill-rule:nonzero;"/><rect x="496.653" y="659.981" width="17.408" height="19.908" style="fill:#1b4ba0;fill-rule:nonzero;"/><rect x="529.761" y="659.981" width="17.408" height="19.908" style="fill:#1b4ba0;fill-rule:nonzero;"/><rect x="562.861" y="659.981" width="17.417" height="19.908" style="fill:#1b4ba0;fill-rule:nonzero;"/><rect x="463.544" y="701.289" width="17.408" height="19.9" style="fill:#1b4ba0;fill-rule:nonzero;"/><rect x="666.853" y="704.531" width="17.417" height="19.9" style="fill:#1b4ba0;fill-rule:nonzero;"/><rect x="666.853" y="745.839" width="17.417" height="19.9" style="fill:#1b4ba0;fill-rule:nonzero;"/><rect x="666.853" y="787.139" width="17.417" height="19.9" style="fill:#1b4ba0;fill-rule:nonzero;"/><rect x="496.653" y="701.289" width="17.408" height="19.9" style="fill:#1b4ba0;fill-rule:nonzero;"/><rect x="529.761" y="701.289" width="17.408" height="19.9" style="fill:#1b4ba0;fill-rule:nonzero;"/><path d="M1007.56,580.322l0,-1.359l-0.6,0l0,0.367l0.6,0.992Z" style="fill:none;stroke-width:2.6px;stroke:#1b4ba0;"/><path d="M97.067,872.965c10.35,0 19.192,-6.492 22.667,-15.625" style="fill:none;stroke-width:10.38px;stroke:#1b4ba0;"/><path d="M119.734,857.34c3.483,9.133 12.317,15.625 22.675,15.625c10.208,0 18.942,-6.317 22.525,-15.25" style="fill:none;stroke-width:11.68px;stroke:#1b4ba0;"/><path d="M164.934,857.715c3.575,8.933 12.309,15.25 22.517,15.25" style="fill:none;stroke-width:11.68px;stroke:#1b4ba0;"/><path d="M279.16,584.397c-7.305,-16.586 -23.017,-10.675 -23.8,-10.6c0.133,-0.984 0.208,-1.992 0.208,-3.017c0,-11.925 -9.667,-21.6 -21.6,-21.6c-6.375,0 -12.109,2.767 -16.067,7.167c-5.5,-11.3 -17.083,-19.084 -30.492,-19.084c-18.716,0 -33.892,15.175 -33.892,33.892c0,2.967 0.384,5.85 1.1,8.6c-12.633,0.592 -22.7,11.017 -22.7,23.809c0,13.166 10.675,23.833 23.834,23.833c1.383,0 82.3,-0.225 97.617,-0.275" style="fill:none;stroke-width:11.68px;stroke:#1b4ba0;"/><path d="M522.194,413.104l0,-40.3" style="fill:none;stroke-width:11.68px;stroke:#1b4ba0;"/><path d="M441.086,763.231l0.175,-166.868l161.575,0l0.15,192.318" style="fill:none;stroke-width:11.68px;stroke:#1b4ba0;"/><path d="M582.895,558.055l-121.684,0l0,35.525" style="fill:none;stroke-width:11.68px;stroke:#1b4ba0;"/><path d="M560.945,516.171l-77.792,0l0,22.509" style="fill:none;stroke-width:11.68px;stroke:#1b4ba0;"/><path d="M545.07,495.788l0,-39.459l-47.867,0l0,39.459" style="fill:none;stroke-width:11.68px;stroke:#1b4ba0;"/><path d="M544.711,436.854c0,-12.658 -10.25,-22.908 -22.9,-22.908c-12.65,0 -22.908,10.25 -22.908,22.908" style="fill:none;stroke-width:11.68px;stroke:#1b4ba0;"/><path d="M544.211,762.164c0,-12.233 -9.917,-22.15 -22.158,-22.15c-12.242,0 -22.167,9.917 -22.167,22.15" style="fill:none;stroke-width:11.68px;stroke:#1b4ba0;"/><path d="M517.336,495.305l0,-13.959c0,-2.175 1.767,-3.941 3.942,-3.941c2.183,0 3.95,1.766 3.95,3.941l0,13.959" style="fill:none;stroke-width:11.68px;stroke:#1b4ba0;"/><path d="M683.004,631.972l0,-10.475c0,-1.633 1.325,-2.95 2.958,-2.95c1.633,0 2.958,1.317 2.958,2.95l0,10.475" style="fill:none;stroke-width:11.68px;stroke:#1b4ba0;"/><path d="M427.869,830.206l0,-13.958c0,-2.183 1.767,-3.942 3.95,-3.942c2.175,0 3.942,1.759 3.942,3.942l0,13.958" style="fill:none;stroke-width:11.68px;stroke:#1b4ba0;"/><path d="M462.269,830.206l0,-13.958c0,-2.183 1.758,-3.942 3.942,-3.942c2.175,0 3.941,1.759 3.941,3.942l0,13.958" style="fill:none;stroke-width:11.68px;stroke:#1b4ba0;"/><path d="M573.411,830.206l0,-13.958c0,-2.183 1.767,-3.942 3.942,-3.942c2.183,0 3.942,1.759 3.942,3.942l0,13.958" style="fill:none;stroke-width:11.68px;stroke:#1b4ba0;"/><path d="M398.052,872.573l0,-89.684l208.743,-0.066" style="fill:none;stroke-width:11.68px;stroke:#1b4ba0;"/><path d="M647.195,632.314l0,-35.467l78.359,0l0,33.883" style="fill:none;stroke-width:11.68px;stroke:#1b4ba0;"/><path d="M647.195,878.365l0,-195.159" style="fill:none;stroke-width:11.68px;stroke:#1b4ba0;"/><path d="M641.62,576.147l24.475,-93.051l43.709,0l22.925,92.709" style="fill:none;stroke-width:11.68px;stroke:#1b4ba0;"/><path d="M715.662,683.047l-79.942,0l0,-29.5l103.667,0l0,6.008" style="fill:none;stroke-width:11.68px;stroke:#1b4ba0;"/><path d="M687.237,477.555l0,-53.809" style="fill:none;stroke-width:11.68px;stroke:#1b4ba0;"/><rect x="687.287" y="420.921" width="32.308" height="22.875" style="fill:none;stroke-width:11.68px;stroke:#1b4ba0;"/><path d="M830.329,874.74l0,-102.717" style="fill:none;stroke-width:11.68px;stroke:#1b4ba0;"/><path d="M123.617,666.731l96.959,0l11.725,86.683l150.834,0" style="fill:none;stroke-width:11.68px;stroke:#1b4ba0;"/><path d="M232.535,753.414l16.416,122.268" style="fill:none;stroke-width:11.68px;stroke:#1b4ba0;"/><path d="M349.343,753.414l0,119.643" style="fill:none;stroke-width:11.68px;stroke:#1b4ba0;"/><path d="M371.142,493.523l56.542,56.817" style="fill:none;stroke-width:11.68px;stroke:#1b4ba0;"/><path d="M386.208,473.407l36.209,36.5" style="fill:none;stroke-width:11.68px;stroke:#1b4ba0;"/><path d="M349.258,506.39l44.026,46.617" style="fill:none;stroke-width:11.68px;stroke:#1b4ba0;"/><path d="M500.186,802.281l0,71.442" style="fill:none;stroke-width:11.68px;stroke:#1b4ba0;"/><path d="M544.053,802.281l0,71.442" style="fill:none;stroke-width:11.68px;stroke:#1b4ba0;"/><path d="M223.118,686.522l-66.334,0" style="fill:none;stroke-width:11.68px;stroke:#1b4ba0;"/><path d="M352.477,788.473l-112.776,0" style="fill:none;stroke-width:11.68px;stroke:#1b4ba0;"/><path d="M844.729,495.213c-13.075,0 -24.25,8.083 -28.833,19.517c-4.583,-11.434 -15.758,-19.517 -28.825,-19.517" style="fill:none;stroke-width:11.68px;stroke-linejoin:round;stroke:#1b4ba0;"/><path d="M819.846,584.772c-13.067,0 -24.242,8.083 -28.825,19.517c-4.584,-11.434 -15.759,-19.517 -28.834,-19.517" style="fill:none;stroke-width:11.68px;stroke-linejoin:round;stroke:#1b4ba0;"/><path d="M738.679,837.573c-13.067,0 -24.25,8.083 -28.834,19.517c-4.575,-11.434 -15.75,-19.517 -28.825,-19.517" style="fill:none;stroke-width:11.68px;stroke-linejoin:round;stroke:#1b4ba0;"/><path d="M211.843,873.34l705.77,0" style="fill:none;stroke-width:10.05px;stroke:#1b4ba0;"/><path d="M403.169,641.214c0,-15.1 -12.242,-27.342 -27.342,-27.342c-0.825,0 -1.633,0.042 -2.442,0.108c0.142,-1 0.225,-2.033 0.225,-3.075c0,-12.192 -9.883,-22.075 -22.083,-22.075c-6.517,0 -12.375,2.825 -16.417,7.325c-5.617,-11.55 -17.458,-19.5 -31.158,-19.5c-19.134,0 -34.642,15.5 -34.642,34.634c0,3.033 0.391,5.975 1.133,8.783c-12.917,0.608 -23.208,11.267 -23.208,24.333c0,13.45 10.908,24.359 24.366,24.359c1.559,0 105.518,-0.242 106.159,-0.283l0.417,-0.034c14,-1.191 24.992,-12.925 24.992,-27.233Z" style="fill:none;stroke-width:11.68px;stroke:#1b4ba0;"/><path d="M326.227,392.821c-27.7,-1.225 -51.151,20.233 -52.376,47.942c-1.225,27.708 20.234,51.158 47.942,52.383c27.701,1.225 51.151,-20.242 52.376,-47.942c1.225,-27.708 -20.234,-51.15 -47.942,-52.383Z" style="fill:none;stroke-width:10.38px;stroke:#1b4ba0;"/><path d="M277.76,448.121c12.525,-0.867 24.283,2.992 32.333,11.783c6.867,7.501 9.917,19.984 9.442,30.426" style="fill:none;stroke-width:10.38px;stroke:#1b4ba0;"/><path d="M369.377,438.629c-12.525,0.867 -24.284,-2.991 -32.334,-11.783c-6.866,-7.5 -9.916,-19.983 -9.441,-30.425" style="fill:none;stroke-width:10.38px;stroke:#1b4ba0;"/><path d="M288.068,408.513l69.742,69.742" style="fill:none;stroke-width:10.38px;stroke:#1b4ba0;"/><path d="M288.068,481.93l71.584,-71.576" style="fill:none;stroke-width:10.38px;stroke:#1b4ba0;"/><path d="M831.096,870.732l2.6,-98.709" style="fill:none;stroke-width:11.68px;stroke:#1b4ba0;"/><g><clipPath id="_clip1"><path d="M699.604,784.648c0,-72.134 57.675,-130.609 128.817,-130.609c71.15,0 128.834,58.475 128.834,130.609c0,72.125 -57.684,130.601 -128.834,130.601c-71.142,0 -128.817,-58.476 -128.817,-130.601Z"/></clipPath><g clip-path="url(#_clip1)"><path d="M832.296,867.932c0,-39.567 0.517,-86.859 0.517,-86.859c0,0 -10.059,-63.259 -63.617,-41.934c-36.467,14.509 -43.642,7.525 -66.734,-7.258" style="fill:none;stroke-width:11.68px;stroke:#1b4ba0;"/><path d="M833.129,793.573c0,-31.759 -41.708,-35.409 -56.917,-27.6c-15.216,7.808 -32.391,12.616 -40.208,9.691c-7.809,-2.916 -20.825,-9.7 -40.609,-2.925" style="fill:none;stroke-width:11.68px;stroke:#1b4ba0;"/><path d="M833.371,788.881c3.767,-13.75 13.925,-20.825 24.4,-32.8c10.484,-11.975 23.059,-32.8 9.484,-56.75c-13.576,-23.95 -16.701,-25.509 -16.701,-45.292" style="fill:none;stroke-width:11.68px;stroke:#1b4ba0;"/><path d="M851.863,762.473c11.183,-5.35 26.808,-16.517 53.875,0c27.075,16.516 23.042,19.825 54.109,22.95" style="fill:none;stroke-width:11.68px;stroke:#1b4ba0;"/><path d="M776.212,765.973c-11.05,-14.575 -14.691,-18.5 -18.341,-33.2c-3.642,-14.701 -4.325,-36.042 -15.442,-50.617" style="fill:none;stroke-width:11.68px;stroke:#1b4ba0;"/><path d="M833.371,788.881c0,0 1.042,-40.608 0,-51.017c-1.042,-10.416 -5.192,-15.325 -26.033,-17.183c-15.301,-1.367 -18.226,-6.767 -25.517,-9.375c-7.284,-2.6 -8.084,-12.084 -31.759,4.166c-28.683,19.701 -38.283,0 -38.283,0" style="fill:none;stroke-width:11.68px;stroke:#1b4ba0;"/><path d="M801.846,735.731c0,0 -8.609,-18.7 0,-34.834c8.617,-16.141 37.658,-34.1 31.992,-53.758" style="fill:none;stroke-width:11.68px;stroke:#1b4ba0;"/><path d="M742.429,748.598c-1.217,11.133 -7.467,39.241 -42.867,40.283" style="fill:none;stroke-width:11.68px;stroke:#1b4ba0;"/><path d="M695.395,748.598c8.334,4.883 22.7,7.191 21.575,19.225" style="fill:none;stroke-width:11.68px;stroke:#1b4ba0;"/><path d="M717.787,691.014c7.808,7.817 14.617,24.2 36.459,22.767" style="fill:none;stroke-width:11.68px;stroke:#1b4ba0;"/><path d="M776.212,664.139c3.525,12.808 1.967,18.883 1.967,27.3c0,8.417 6.217,20.967 6.217,20.967" style="fill:none;stroke-width:11.68px;stroke:#1b4ba0;"/><path d="M757.087,671.222c3.384,9.9 11.85,19.525 21.159,17.05" style="fill:none;stroke-width:11.68px;stroke:#1b4ba0;"/><path d="M792.237,659.78c4.684,14.042 21.342,26.151 21.342,26.151c0,0 15.193,7.059 14.425,40.067" style="fill:none;stroke-width:11.68px;stroke:#1b4ba0;"/><path d="M833.838,743.064c8.383,-17.175 19.433,-28.108 37.383,-34.75c14.15,-5.233 23.409,-2.217 38.859,-34.492" style="fill:none;stroke-width:11.68px;stroke:#1b4ba0;"/><path d="M870.38,735.731c0,0 16.166,-13.05 43.166,-5.683c20.834,5.683 32.809,1.416 32.809,1.416" style="fill:none;stroke-width:11.68px;stroke:#1b4ba0;"/><path d="M893.246,668.614c-9.375,7.292 -22.5,16.417 -22.025,39.7" style="fill:none;stroke-width:11.68px;stroke:#1b4ba0;"/><path d="M875.546,659.78c0,0 -11.975,13.376 -27.075,21.517c-15.1,8.142 -17.533,8.9 -23.342,17.375" style="fill:none;stroke-width:11.68px;stroke:#1b4ba0;"/><path d="M942.155,705.056c-21.834,6.25 -35.892,7.075 -48.909,-8.85" style="fill:none;stroke-width:11.68px;stroke:#1b4ba0;"/><path d="M813.579,649.347c2.084,10.417 -9.975,27.684 -9.975,27.684" style="fill:none;stroke-width:11.68px;stroke:#1b4ba0;"/><path d="M955.372,735.731c-16.309,10.983 -23.55,20.467 -31.717,26.742c-8.167,6.283 -12.35,3.5 -12.35,3.5" style="fill:none;stroke-width:11.68px;stroke:#1b4ba0;"/><path d="M959.98,769.256c-33.1,-9.442 -65.292,-33.417 -38.925,-78.267" style="fill:none;stroke-width:11.68px;stroke:#1b4ba0;"/></g></g><path d="M335.577,331.079c0,2.125 1.72,3.844 3.844,3.844c2.124,0 3.844,-1.719 3.844,-3.844l0,-18.967l15.578,20.434c1.062,1.366 2.175,2.276 4.046,2.276l0.253,0c2.175,0 3.895,-1.72 3.895,-3.894l0,-28.173c0,-2.124 -1.72,-3.844 -3.844,-3.844c-2.125,0 -3.844,1.72 -3.844,3.844l0,18.259l-15.022,-19.725c-1.062,-1.366 -2.175,-2.276 -4.046,-2.276l-0.81,0c-2.174,0 -3.894,1.719 -3.894,3.894l0,28.172Z" style="fill:#1b4ba0;fill-rule:nonzero;"/><path d="M392.73,335.227c10.925,0 18.866,-8.245 18.866,-18.31l0,-0.101c0,-10.065 -7.84,-18.208 -18.765,-18.208c-10.924,0 -18.865,8.244 -18.865,18.309l0,0.101c0,10.066 7.839,18.209 18.764,18.209ZM392.831,328.045c-6.271,0 -10.722,-5.058 -10.722,-11.128l0,-0.101c0,-6.069 4.35,-11.026 10.621,-11.026c6.272,0 10.723,5.058 10.723,11.127l0,0.101c0,6.07 -4.35,11.027 -10.622,11.027Z" style="fill:#1b4ba0;fill-rule:nonzero;"/><path d="M418.525,330.725c0,2.175 1.72,3.895 3.895,3.895l9.913,0c11.127,0 18.815,-7.739 18.815,-17.703l0,-0.101c0,-9.964 -7.688,-17.601 -18.815,-17.601l-9.913,0c-2.175,0 -3.895,1.72 -3.895,3.894l0,27.616ZM426.314,327.589l0,-21.344l6.019,0c6.373,0 10.672,4.401 10.672,10.672l0,0.101c0,6.272 -4.299,10.571 -10.672,10.571l-6.019,0Z" style="fill:#1b4ba0;fill-rule:nonzero;"/><path d="M461.972,334.62l19.877,0c1.922,0 3.49,-1.518 3.49,-3.44c0,-1.922 -1.568,-3.489 -3.49,-3.489l-16.033,0l0,-7.436l13.504,0c1.922,0 3.49,-1.517 3.49,-3.439c0,-1.922 -1.568,-3.49 -3.49,-3.49l-13.504,0l0,-7.182l15.78,0c1.922,0 3.49,-1.517 3.49,-3.439c0,-1.922 -1.568,-3.49 -3.49,-3.49l-19.624,0c-2.175,0 -3.895,1.72 -3.895,3.894l0,27.616c0,2.175 1.72,3.895 3.895,3.895Z" style="fill:#1b4ba0;fill-rule:nonzero;"/><path d="M504.559,335.126c7.637,0 12.999,-3.946 12.999,-10.976l0,-0.101c0,-6.171 -4.047,-8.75 -11.229,-10.622c-6.12,-1.568 -7.637,-2.326 -7.637,-4.653l0,-0.101c0,-1.72 1.568,-3.085 4.552,-3.085c2.428,0 4.855,0.86 7.435,2.377c0.607,0.354 1.214,0.556 1.972,0.556c2.024,0 3.642,-1.568 3.642,-3.591c0,-1.517 -0.86,-2.579 -1.72,-3.085c-3.186,-2.023 -6.929,-3.136 -11.228,-3.136c-7.233,0 -12.392,4.249 -12.392,10.672l0,0.101c0,7.031 4.603,9.003 11.735,10.824c5.917,1.517 7.131,2.529 7.131,4.502l0,0.101c0,2.073 -1.922,3.338 -5.108,3.338c-3.44,0 -6.373,-1.214 -9.054,-3.187c-0.506,-0.354 -1.214,-0.708 -2.225,-0.708c-2.023,0 -3.642,1.568 -3.642,3.591c0,1.214 0.607,2.327 1.467,2.934c3.945,2.832 8.649,4.249 13.302,4.249Z" style="fill:#1b4ba0;fill-rule:nonzero;"/><path d="M540.925,335.227c5.665,0 9.407,-1.669 12.594,-4.451c0.708,-0.607 1.315,-1.568 1.315,-2.782c0,-1.973 -1.669,-3.591 -3.642,-3.591c-0.91,0 -1.72,0.354 -2.326,0.86c-2.226,1.77 -4.401,2.782 -7.688,2.782c-6.07,0 -10.268,-5.058 -10.268,-11.128l0,-0.101c0,-6.069 4.299,-11.026 10.268,-11.026c2.781,0 5.057,0.911 7.232,2.529c0.557,0.354 1.265,0.759 2.327,0.759c2.124,0 3.844,-1.669 3.844,-3.794c0,-1.365 -0.708,-2.478 -1.517,-3.085c-2.934,-2.175 -6.525,-3.591 -11.836,-3.591c-10.874,0 -18.461,8.244 -18.461,18.309l0,0.101c0,10.167 7.739,18.209 18.158,18.209Z" style="fill:#1b4ba0;fill-rule:nonzero;"/><path d="M561.662,331.029c0,2.175 1.72,3.894 3.894,3.894c2.175,0 3.895,-1.719 3.895,-3.894l0,-10.622l14.364,0l0,10.622c0,2.175 1.72,3.894 3.895,3.894c2.175,0 3.894,-1.719 3.894,-3.894l0,-28.223c0,-2.175 -1.719,-3.895 -3.894,-3.895c-2.175,0 -3.895,1.72 -3.895,3.895l0,10.419l-14.364,0l0,-10.419c0,-2.175 -1.72,-3.895 -3.895,-3.895c-2.174,0 -3.894,1.72 -3.894,3.895l0,28.223Z" style="fill:#1b4ba0;fill-rule:nonzero;"/><path d="M617.298,335.227c10.925,0 18.866,-8.245 18.866,-18.31l0,-0.101c0,-10.065 -7.84,-18.208 -18.765,-18.208c-10.925,0 -18.866,8.244 -18.866,18.309l0,0.101c0,10.066 7.84,18.209 18.765,18.209ZM617.399,328.045c-6.272,0 -10.722,-5.058 -10.722,-11.128l0,-0.101c0,-6.069 4.349,-11.026 10.621,-11.026c6.272,0 10.723,5.058 10.723,11.127l0,0.101c0,6.07 -4.35,11.027 -10.622,11.027Z" style="fill:#1b4ba0;fill-rule:nonzero;"/><path d="M660.29,335.227c10.924,0 18.865,-8.245 18.865,-18.31l0,-0.101c0,-10.065 -7.839,-18.208 -18.764,-18.208c-10.925,0 -18.866,8.244 -18.866,18.309l0,0.101c0,10.066 7.84,18.209 18.765,18.209ZM660.391,328.045c-6.272,0 -10.723,-5.058 -10.723,-11.128l0,-0.101c0,-6.069 4.35,-11.026 10.622,-11.026c6.271,0 10.722,5.058 10.722,11.127l0,0.101c0,6.07 -4.35,11.027 -10.621,11.027Z" style="fill:#1b4ba0;fill-rule:nonzero;"/><path d="M686.084,330.725c0,2.175 1.72,3.895 3.895,3.895l18.309,0c1.973,0 3.541,-1.568 3.541,-3.541c0,-1.972 -1.568,-3.54 -3.541,-3.54l-14.414,0l0,-24.733c0,-2.175 -1.72,-3.895 -3.895,-3.895c-2.175,0 -3.895,1.72 -3.895,3.895l0,27.919Z" style="fill:#1b4ba0;fill-rule:nonzero;"/><path d="M417.134,965.724c8.726,-6.574 10.107,-17.937 4.051,-25.976l-0.061,-0.081c-6.057,-8.039 -17.218,-9.825 -25.944,-3.251c-8.725,6.574 -10.107,17.937 -4.05,25.976l0.061,0.08c6.056,8.039 17.218,9.826 25.943,3.252ZM412.893,959.927c-5.009,3.774 -11.607,2.412 -15.259,-2.435l-0.061,-0.081c-3.652,-4.848 -3.161,-11.424 1.848,-15.198c5.009,-3.774 11.608,-2.413 15.26,2.435l0.061,0.081c3.652,4.847 3.161,11.424 -1.849,15.198Z" style="fill:#1b4ba0;fill-rule:nonzero;"/><path d="M504.685,948.337c0,2.023 1.568,3.641 3.591,3.641c1.619,0 2.934,-0.91 3.592,-2.427l2.478,-5.817l15.578,0l2.377,5.564c0.708,1.618 1.922,2.68 3.743,2.68c2.074,0 3.692,-1.669 3.692,-3.742c0,-0.506 -0.152,-1.012 -0.404,-1.568l-12.342,-27.869c-0.859,-1.922 -2.377,-3.085 -4.501,-3.085l-0.455,0c-2.125,0 -3.692,1.163 -4.552,3.085l-12.341,27.869c-0.253,0.556 -0.456,1.112 -0.456,1.669ZM517.229,936.856l4.906,-11.684l4.906,11.684l-9.812,0Z" style="fill:#1b4ba0;fill-rule:nonzero;"/><path d="M617.997,955.677c-1.342,1.711 -1.05,4.126 0.662,5.468c1.711,1.342 4.126,1.05 5.468,-0.662l4.369,-5.572l6.062,-0.517l-0.217,16.67c-0.01,1.406 0.238,2.565 1.432,3.501c1.791,1.405 4.103,1.161 5.445,-0.55c0.718,-0.915 0.859,-1.833 0.85,-2.805l-0.13,-17.456l13.583,-1.175c1.176,-0.106 2.176,-0.479 2.925,-1.434c1.186,-1.513 1.101,-3.7 -0.61,-5.042c-1.075,-0.843 -2.174,-0.998 -3.524,-0.835l-20.104,2.36l7.334,-9.353c1.342,-1.711 1.05,-4.126 -0.661,-5.468c-1.711,-1.342 -4.126,-1.05 -5.468,0.661l-17.416,22.209Z" style="fill:#1b4ba0;fill-rule:nonzero;"/></g></svg>